<svg width="800" height="600" xmlns="http://www.w3.org/2000/svg">
 <g id="Layer_1">
  <title>Layer 1</title>
  <path id="svg_3" class="st0" d="m609.43206,254.03538c-0.06001,0.60014 -0.24006,1.20028 -0.4201,1.74041c-0.18004,0.60014 -0.4201,1.14027 -0.66016,1.6804c-0.24006,1.02024 -0.4201,2.1005 -0.54013,3.24077c-0.12003,1.2603 -0.18004,2.58061 -0.18004,4.08097l0,0.12003c0,0.24006 0.06001,0.48011 0.06001,0.78018l0,201.76782c1.14027,2.82067 2.46058,5.28125 3.84091,7.32174c1.38033,2.1005 2.9407,3.7809 4.56108,5.04119l0.06001,0.06001c1.44034,1.14027 3.06073,1.98047 4.86115,2.5206c1.80043,0.54013 3.84091,0.78018 6.00142,0.72017c15.54368,-1.2603 44.65058,-1.02024 60.25428,-0.06001c4.02095,0.18004 7.50178,-0.24006 10.38246,-1.2603c2.82067,-1.02024 5.16122,-2.58061 7.02166,-4.74112l0.12003,-0.12003c2.16051,-2.5206 3.90092,-5.88139 5.22124,-9.96236c1.38033,-4.26101 2.28054,-9.36222 2.76065,-15.24361c0,-50.41195 12.48296,-129.45068 17.64418,-182.62328c0,-0.36009 0,-0.72017 0.06001,-1.20028c0.54013,-4.80114 0.36009,-8.70206 -0.60014,-11.76279c-0.90021,-2.88068 -2.40057,-5.10121 -4.50107,-6.72159c-2.58061,-1.98047 -6.12145,-3.42081 -10.44247,-4.38104c-4.50107,-0.96023 -9.90235,-1.44034 -16.0238,-1.44034l-0.8402,0.06001l-65.35549,0c-0.18004,0 -0.36009,0 -0.54013,-0.06001c-4.56108,0.06001 -8.46201,0.48011 -11.70277,1.38033c-3.18075,0.90021 -5.70135,2.16051 -7.62181,3.90092c-0.78018,0.66016 -1.44034,1.44034 -1.98047,2.34055c-0.54013,0.90021 -1.02024,1.80043 -1.44034,2.82067l0,0zm-69.01636,224.81328c-0.78018,-0.78018 -1.44034,-1.6804 -1.98047,-2.64063c-0.54013,-0.96023 -0.96023,-1.98047 -1.20028,-3.06073l-92.96203,-167.31966c-4.80114,-7.98189 -9.18218,-12.06286 -13.32316,-13.44319c-3.84091,-1.2603 -7.62181,-0.18004 -11.46272,2.1005c-3.06073,1.80043 -6.24148,4.201 -9.48225,6.90164c-3.42081,2.88068 -6.72159,5.88139 -10.02238,8.88211l-0.60014,0.54013c-3.90092,3.54084 -7.80185,7.08168 -11.10263,9.84233l-16.0238,13.20313l-0.30007,0.24006c-5.88139,4.68111 -12.12287,8.34198 -18.42437,10.9826c-6.72159,2.76065 -13.56321,4.44105 -20.22479,4.98118c-4.26101,0.36009 -8.52202,0.24006 -12.663,-0.30007c-4.14098,-0.54013 -8.16193,-1.56037 -11.94283,-3.00071c-3.96094,-1.50036 -7.74183,-3.48082 -11.16265,-5.88139c-3.30078,-2.34055 -6.30149,-5.16122 -8.88211,-8.34198c-2.88068,-3.60085 -5.28125,-7.68182 -7.02166,-12.2429c-1.6804,-4.32102 -2.76065,-9.12216 -3.24077,-14.22337c0,-0.24006 0,-0.48011 0,-0.72017c0,-1.32031 0.18004,-2.70064 0.60014,-3.96094c0.48011,-1.44034 1.20028,-2.88068 2.28054,-4.14098l46.391,-55.21309c6.06144,5.46129 12.48296,10.50249 19.20455,15.12358l-43.27026,51.4922c0.36009,1.44034 0.8402,2.82067 1.38033,4.08097c0.72017,1.6804 1.6804,3.18075 2.76065,4.56108l0.06001,0.12003c1.20028,1.44034 2.58061,2.70064 4.08097,3.7809c1.62038,1.14027 3.42081,2.1005 5.34127,2.82067c2.04048,0.78018 4.32102,1.2603 6.66158,1.56037l0.06001,0c2.34055,0.24006 4.80114,0.30007 7.32174,0.12003c4.26101,-0.36009 8.76208,-1.44034 13.14312,-3.30078c4.201,-1.74041 8.40199,-4.201 12.30292,-7.38175l15.96378,-13.20313c3.3608,-2.76065 6.30149,-5.40128 9.12216,-7.98189l1.86044,-1.6804c3.72088,-3.42081 7.44176,-6.84162 11.22266,-9.96236c0.66016,-0.54013 1.32031,-1.14027 2.04048,-1.6804c10.44247,-4.08097 20.40484,-8.76208 29.82707,-14.10334c3.18075,-0.24006 6.36151,0 9.60228,0.8402c9.78232,2.5206 19.38459,10.32245 28.80683,26.10619c31.56748,52.3324 61.51458,110.72624 91.46168,164.559l26.52629,0l0,-192.22556c0,-0.30007 0,-0.60014 0.06001,-1.02024c0,-1.44034 0.06001,-2.88068 0.12003,-4.38104c0.06001,-0.90021 0.12003,-1.80043 0.24006,-2.64063l-30.72728,-20.40484c-2.16051,-1.44034 -4.44105,-3.00071 -6.78161,-4.6211l-7.80185,-5.52131c-13.74326,-9.60228 -27.8466,-19.44461 -42.55008,-25.68609c4.32102,-6.78161 8.34198,-13.9233 12.00284,-21.42508c5.16122,2.34055 10.20242,4.92117 15.12358,7.80185c10.38246,6.00142 20.28481,12.90306 29.9471,19.74468l0.54013,0.4201c4.14098,2.88068 8.28196,5.82138 13.0831,9.00213c8.82209,5.70135 17.58417,11.76279 26.40626,17.64418l0.78018,-0.90021c0.8402,-0.96023 1.80043,-1.92046 2.88068,-2.82067l0,0c4.32102,-3.84091 9.54226,-6.72159 15.6037,-8.64205c5.88139,-1.86044 12.54297,-2.76065 19.98474,-2.82067c0.18004,-0.06001 0.36009,-0.06001 0.54013,-0.06001c21.42508,0.96023 45.31074,-1.50036 66.31572,0.06001c8.52202,0 16.20384,0.78018 23.04546,2.46058c7.08168,1.74041 13.20313,4.50107 18.24432,8.40199c5.70135,4.38104 9.84233,9.90235 12.30292,16.74397c2.40057,6.66158 3.18075,14.52344 2.1005,23.76563c-7.68182,59.53411 -11.88282,122.7891 -17.7042,182.86334c-0.66016,8.46201 -2.16051,15.96378 -4.44105,22.62536c-2.34055,6.66158 -5.52131,12.30292 -9.54226,16.98403c-4.38104,5.04119 -9.66229,8.88211 -15.84376,11.28267c-6.06144,2.40057 -12.96307,3.48082 -20.82494,3.12074c-19.26457,0 -38.94923,0.4201 -58.15378,0c-5.22124,0.24006 -10.08239,-0.36009 -14.58346,-1.74041c-4.68111,-1.44034 -8.94212,-3.72088 -12.84304,-6.84162l-0.12003,-0.12003c-2.76065,-2.28054 -5.28125,-4.86115 -7.56179,-7.92188c-1.98047,-2.58061 -3.72088,-5.40128 -5.34127,-8.52202l-19.20455,0c0.96023,3.72088 1.44034,7.38175 1.50036,10.9826c0.12003,5.04119 -0.66016,9.90235 -2.16051,14.46343c-1.44034,4.44105 -3.54084,8.58203 -6.18147,12.30292c-2.76065,3.90092 -6.06144,7.32174 -9.78232,10.26243l-0.18004,0.12003c-3.54084,2.76065 -7.44176,5.10121 -11.52273,6.96165c-4.14098,1.80043 -8.52202,3.18075 -13.02309,3.90092c-4.50107,0.78018 -9.12216,0.90021 -13.68324,0.4201c-3.7809,-0.4201 -7.56179,-1.2603 -11.28267,-2.64063c-4.44105,4.44105 -9.00213,8.16193 -13.62323,11.10263c-5.22124,3.30078 -10.62252,5.70135 -16.08381,7.26172s-11.04262,2.1005 -16.62394,1.86044c-4.98118,-0.24006 -9.90235,-1.20028 -14.88353,-2.76065c-4.86115,5.22124 -9.96236,9.48225 -15.36364,12.78303c-5.88139,3.66087 -12.06286,6.24148 -18.5444,7.62181c-6.60156,1.44034 -13.44319,1.6804 -20.46485,0.66016c-6.42152,-0.96023 -13.0831,-2.9407 -19.86471,-5.94141c-1.86044,1.38033 -3.72088,2.64063 -5.70135,3.7809c-2.40057,1.44034 -4.86115,2.64063 -7.44176,3.72088c-3.60085,1.50036 -7.26172,2.58061 -11.10263,3.30078c-3.7809,0.66016 -7.62181,0.96023 -11.58275,0.8402c-9.3022,-0.30007 -17.10405,-1.80043 -23.88566,-4.38104c-6.78161,-2.58061 -12.48296,-6.24148 -17.58417,-10.80256c-4.80114,-4.26101 -8.76208,-9.12216 -12.42294,-14.46343c-3.60085,-5.22124 -6.90164,-10.92259 -10.44247,-17.04404l-38.8292,-67.75606l-26.76634,0c-0.90021,3.7809 -1.98047,7.32174 -3.3608,10.5625c-1.6804,3.96094 -3.72088,7.62181 -6.24148,10.86257c-4.201,5.46129 -9.42223,9.60228 -15.72373,12.36293c-6.18147,2.70064 -13.44319,4.08097 -21.84518,3.90092l-53.05257,0c-6.96165,1.08026 -13.5032,0.78018 -19.44461,-1.20028c-6.12145,-1.98047 -11.58275,-5.70135 -16.38388,-11.22266c-4.201,-4.86115 -7.68182,-11.16265 -10.44247,-19.08452c-2.70064,-7.74183 -4.68111,-17.10405 -5.82138,-28.14667l-0.12003,-0.96023l-13.56321,-171.94075c-1.38033,-9.54226 -1.32031,-17.76421 0.12003,-24.72586c1.44034,-7.20171 4.26101,-13.14312 8.28196,-18.00427c4.08097,-4.92117 9.18218,-8.46201 15.12358,-10.86257c5.76137,-2.34055 12.36293,-3.60085 19.62465,-3.90092l0.72017,-0.06001l0.72017,0l70.99683,0c0.24006,0 0.4201,0 0.60014,0.06001c6.66158,-0.06001 12.90306,0.48011 18.5444,1.74041c6.00142,1.32031 11.34269,3.42081 16.0238,6.42152c3.7809,2.46058 7.08168,5.40128 9.78232,8.94212c2.28054,3.00071 4.08097,6.42152 5.46129,10.26243l54.853,0c7.08168,-4.74112 13.98331,-9.00213 20.94496,-12.663c7.26172,-3.7809 14.52344,-6.96165 22.26528,-9.42223l0.12003,-0.06001c2.58061,-0.78018 5.22124,-1.50036 7.86186,-2.16051c6.24148,7.86186 13.02309,15.06357 20.28481,21.60512c-2.58061,0.12003 -5.10121,0.4201 -7.50178,0.78018c-4.68111,0.66016 -9.12216,1.6804 -13.44319,3.06073c-6.60156,2.04048 -13.02309,4.92117 -19.44461,8.34198c-6.48154,3.48082 -13.0831,7.62181 -19.92472,12.36293c-1.02024,0.78018 -2.16051,1.38033 -3.42081,1.80043c-1.2603,0.4201 -2.58061,0.66016 -3.96094,0.66016l-55.75321,0l0,107.96559l0.24006,67.99612l31.26741,0c2.16051,0 4.32102,0.60014 6.18147,1.6804c1.80043,1.02024 3.30078,2.58061 4.44105,4.50107l42.43006,73.87751c3.06073,5.34127 5.94141,10.32245 8.88211,14.64347c2.88068,4.26101 5.82138,7.92188 9.00213,10.80256c2.9407,2.64063 6.36151,4.80114 10.50249,6.30149l0.12003,0.06001c4.201,1.50036 9.18218,2.40057 15.24361,2.58061c2.22053,0.06001 4.44105,-0.12003 6.60156,-0.48011c2.1005,-0.36009 4.14098,-0.96023 6.12145,-1.80043c1.20028,-0.48011 2.46058,-1.14027 3.72088,-1.80043c0.54013,-0.30007 1.08026,-0.66016 1.62038,-0.96023c-8.76208,-16.38388 -17.7042,-32.76777 -26.34624,-49.21166c-1.56037,-2.9407 -1.74041,-6.24148 -0.8402,-9.18218c0.90021,-2.9407 2.9407,-5.58132 5.88139,-7.14169l0.36009,-0.18004c2.88068,-1.44034 6.12145,-1.6804 9.00213,-0.78018c2.9407,0.90021 5.52131,2.9407 7.14169,5.82138c9.84233,18.36435 19.68467,36.72871 29.46698,55.09306c4.98118,2.46058 9.78232,4.08097 14.22337,4.92117c4.68111,0.8402 9.12216,0.8402 13.32316,-0.06001c3.7809,-0.8402 7.50178,-2.40057 11.10263,-4.68111c3.18075,-1.98047 6.24148,-4.56108 9.3022,-7.68182l-42.12999,-65.47552c-1.80043,-2.82067 -2.28054,-6.12145 -1.62038,-9.18218c0.66016,-3.06073 2.5206,-5.82138 5.34127,-7.62181c2.82067,-1.80043 6.12145,-2.28054 9.18218,-1.62038c3.00071,0.66016 5.82138,2.5206 7.62181,5.34127l44.83063,70.39668c3.42081,1.32031 6.78161,2.1005 10.02238,2.40057c3.48082,0.30007 6.90164,0 10.20242,-0.90021l0.12003,-0.06001c3.18075,-0.90021 6.36151,-2.34055 9.60228,-4.44105c2.76065,-1.80043 5.52131,-4.08097 8.34198,-6.78161l-40.14952,-75.61792c-1.50036,-2.9407 -1.74041,-6.24148 -0.8402,-9.18218c0.90021,-2.9407 2.9407,-5.58132 5.82138,-7.14169l0.30007,-0.18004c2.9407,-1.50036 6.24148,-1.74041 9.18218,-0.8402c2.9407,0.90021 5.52131,2.9407 7.14169,5.82138l42.25001,79.45883c2.16051,1.14027 4.50107,1.92046 6.84162,2.28054c2.82067,0.48011 5.76137,0.48011 8.58203,0c2.40057,-0.4201 4.80114,-1.14027 7.08168,-2.1005c2.28054,-1.02024 4.50107,-2.28054 6.42152,-3.7809c1.92046,-1.50036 3.60085,-3.24077 4.92117,-5.16122c1.2603,-1.74041 2.28054,-3.72088 2.9407,-5.70135l0,0c0.72017,-2.34055 1.08026,-4.86115 0.90021,-7.56179c-0.18004,-2.58061 -0.8402,-5.28125 -1.98047,-8.16193l-3.30078,-6.00142l0,0zm-422.08004,-72.9773c4.26101,0 8.16193,1.74041 10.9826,4.56108c2.82067,2.82067 4.56108,6.72159 4.56108,10.9826c0,4.26101 -1.74041,8.16193 -4.56108,10.9826l-0.18004,0.18004c-2.82067,2.70064 -6.60156,4.38104 -10.80256,4.38104c-4.26101,0 -8.16193,-1.74041 -10.9826,-4.56108c-2.82067,-2.82067 -4.56108,-6.72159 -4.56108,-10.9826c0,-4.26101 1.74041,-8.16193 4.56108,-10.9826c2.82067,-2.88068 6.72159,-4.56108 10.9826,-4.56108l0,0zm550.03036,0c4.26101,0 8.16193,1.74041 10.9826,4.56108c2.82067,2.82067 4.56108,6.72159 4.56108,10.9826c0,4.26101 -1.74041,8.16193 -4.56108,10.9826c-2.82067,2.82067 -6.66158,4.56108 -10.9826,4.56108c-4.26101,0 -8.16193,-1.74041 -10.9826,-4.56108c-2.82067,-2.82067 -4.56108,-6.72159 -4.56108,-10.9826c0,-4.26101 1.74041,-8.16193 4.56108,-10.9826l0.18004,-0.18004c2.82067,-2.76065 6.60156,-4.38104 10.80256,-4.38104l0,0zm-489.11593,-51.97232l-0.36009,-97.94321c-0.4201,-2.58061 -1.20028,-4.74112 -2.28054,-6.48154c-1.02024,-1.74041 -2.40057,-3.12074 -4.02095,-4.14098c-2.40057,-1.56037 -5.40128,-2.64063 -9.00213,-3.30078c-3.66087,-0.72017 -7.80185,-1.02024 -12.36293,-0.96023c-0.18004,0.06001 -0.4201,0.06001 -0.66016,0.06001c-23.70562,0 -47.83134,0.4201 -71.47694,0c-4.02095,0.18004 -7.56179,0.78018 -10.44247,1.80043c-2.76065,0.96023 -4.98118,2.34055 -6.48154,4.201l0,0c-1.6804,1.98047 -2.82067,4.80114 -3.3608,8.58203c-0.60014,4.02095 -0.4201,9.12216 0.48011,15.36364c6.24148,46.69107 13.26314,126.81006 13.9233,173.44111c0.90021,8.64205 2.28054,15.66371 4.08097,21.30505c1.74041,5.46129 3.90092,9.54226 6.36151,12.42294c1.74041,2.04048 3.84091,3.3608 6.18147,4.02095c2.46058,0.72017 5.22124,0.72017 8.28196,0.18004c0.36009,-0.06001 0.72017,-0.12003 1.08026,-0.18004l0.4201,-0.06001c0.24006,-0.06001 0.4201,-0.06001 0.66016,-0.06001l53.29263,0c0.36009,0 0.78018,0 1.2603,0.06001c4.201,0.06001 7.80185,-0.54013 10.68253,-1.74041c2.82067,-1.14027 5.10121,-2.82067 6.78161,-5.10121c2.16051,-2.76065 3.7809,-6.36151 4.86115,-10.74255c1.14027,-4.38104 1.74041,-9.48225 1.98047,-15.24361l-0.06001,-0.54013l0,-93.92226c0,-0.36009 0.06001,-0.72017 0.18004,-1.02024l0,0z" fill="#262626"/>
  <path id="svg_4" class="st1" d="m395.60138,7.67699c40.44959,25.62607 76.93824,37.74895 108.32567,34.86826c5.46129,110.78626 -35.40839,176.14175 -107.90557,203.44822c-0.48011,-0.18004 -0.90021,-0.36009 -1.38033,-0.54013c-0.48011,0.18004 -0.90021,0.36009 -1.38033,0.54013c-72.49718,-27.24646 -113.36687,-92.66196 -107.90557,-203.44822c31.32742,2.88068 67.87609,-9.24219 108.32567,-34.86826l0,0l0.96023,0.72017l0.96023,-0.72017l0,0l0,0l0,0zm-65.71558,109.16587l23.6456,-0.30007l1.80043,0.4201c4.80114,2.76065 9.24219,5.88139 13.5032,9.48225c3.06073,2.58061 5.94141,5.34127 8.64205,8.40199c8.46201,-13.62323 17.52415,-26.1662 27.06642,-37.68893c10.44247,-12.60299 16.98403,-19.56464 28.62678,-30.00711l2.28054,-0.90021l25.80612,0l-5.22124,5.76137c-15.96378,17.76421 -25.98616,31.6275 -39.06926,50.53198c-13.14312,18.96449 -24.84589,38.52913 -35.28836,58.6339l-3.24077,6.24148l-3.00071,-6.36151c-5.52131,-11.8228 -12.06286,-22.62536 -19.92472,-32.28765c-7.86186,-9.66229 -16.98403,-18.30434 -27.66656,-25.56606l2.04048,-6.36151l0,0l0,0l0,0l0,0z" fill-rule="evenodd" clip-rule="evenodd" fill="#dbdb1c"/>
 </g>

</svg>