<?xml version="1.0" standalone="no"?>
<!DOCTYPE svg PUBLIC "-//W3C//DTD SVG 20010904//EN"
 "http://www.w3.org/TR/2001/REC-SVG-20010904/DTD/svg10.dtd">
<svg version="1.0" xmlns="http://www.w3.org/2000/svg"
 width="3552.000000pt" height="2079.000000pt" viewBox="0 0 3552.000000 2079.000000"
 preserveAspectRatio="xMidYMid meet">

<g transform="translate(0.000000,2079.000000) scale(0.100000,-0.100000)"
fill="#000000" stroke="none">
<path d="M14496 8655 c-274 -57 -443 -180 -518 -377 -44 -118 -40 -285 10
-392 74 -155 162 -219 512 -371 290 -126 344 -159 388 -234 66 -113 5 -276
-125 -333 -144 -63 -446 -63 -569 0 -89 46 -118 107 -116 247 1 62 -3 109 -11
125 -27 55 -130 77 -197 42 -46 -25 -77 -82 -92 -170 -41 -241 115 -443 398
-514 78 -19 115 -22 294 -22 229 0 323 16 445 74 304 145 418 467 255 720 -73
114 -172 178 -493 317 -213 92 -243 108 -305 167 -128 120 -137 276 -23 379
83 75 190 102 363 94 138 -6 196 -25 253 -82 53 -53 70 -113 61 -223 -8 -92 9
-137 64 -165 43 -22 111 -18 148 10 65 48 105 209 83 329 -34 184 -161 305
-386 365 -104 28 -337 35 -439 14z"/>
<path d="M18650 8655 c-290 -30 -482 -78 -611 -154 -130 -75 -218 -195 -240
-327 -10 -59 -10 -80 5 -144 34 -153 80 -205 176 -204 85 1 140 36 140 89 0
18 -9 58 -21 91 -25 71 -28 148 -6 190 69 133 342 213 423 123 21 -24 21 -33
0 -274 -24 -267 -46 -307 -178 -323 -78 -10 -103 -28 -119 -85 -22 -82 10
-135 95 -158 70 -18 106 -38 115 -61 9 -25 -8 -183 -29 -258 -34 -128 -128
-237 -228 -266 -74 -22 -159 -13 -232 24 -71 35 -91 65 -99 145 -4 36 -13 72
-20 81 -17 20 -61 21 -106 2 -35 -15 -171 -103 -218 -143 -38 -31 -71 -29 -97
5 -25 31 -28 1 34 356 52 292 55 337 27 365 -26 26 -82 36 -125 21 -72 -23
-87 -49 -161 -269 -126 -379 -225 -521 -303 -438 -29 31 -28 53 12 269 76 401
71 368 55 397 -19 33 -85 56 -137 46 -59 -11 -114 -76 -146 -172 -28 -84 -57
-224 -76 -363 -16 -119 -40 -169 -117 -240 -74 -70 -115 -79 -158 -35 -35 34
-33 75 15 350 42 244 47 309 26 337 -22 30 -128 88 -200 110 -54 16 -85 20
-145 15 -135 -9 -244 -66 -366 -192 -120 -123 -182 -257 -205 -441 -26 -207
32 -357 165 -430 107 -60 212 -54 319 18 27 18 61 41 75 50 43 29 78 23 129
-23 68 -59 112 -79 176 -79 67 0 139 26 204 73 76 54 84 55 136 3 55 -54 102
-72 229 -90 53 -7 100 -15 102 -18 3 -3 -32 -41 -77 -84 -229 -217 -327 -332
-383 -449 -44 -94 -58 -162 -53 -254 9 -161 103 -253 258 -253 77 0 159 28
219 75 124 98 239 346 332 717 40 156 57 205 84 246 66 101 174 166 274 167
49 0 69 -6 142 -46 297 -161 567 -139 770 64 64 63 86 93 128 179 48 99 67
164 100 344 12 69 46 111 100 126 20 5 90 10 156 10 134 0 230 12 271 32 88
42 100 182 20 226 -26 14 -62 17 -219 17 l-189 0 -28 32 c-51 57 -59 116 -35
271 7 52 17 130 21 175 8 98 23 132 70 154 33 16 53 16 317 0 376 -23 453 -23
495 3 68 42 83 161 26 207 -33 26 -79 36 -264 59 -187 22 -670 28 -850 9z
m-2602 -1131 c12 -8 22 -25 22 -38 0 -31 -77 -373 -102 -455 -25 -80 -79 -141
-125 -141 -47 0 -90 19 -109 47 -42 65 -23 244 42 380 50 104 173 222 234 223
9 0 26 -7 38 -16z m940 -1221 c-20 -161 -101 -369 -173 -448 -32 -34 -39 -37
-71 -32 -62 10 -77 32 -71 102 9 113 75 225 210 358 49 48 95 87 101 87 10 0
10 -17 4 -67z"/>
</g>
</svg>
