<svg width="844" height="589" viewBox="0 0 844 589" fill="none" xmlns="http://www.w3.org/2000/svg">
<g clip-path="url(#clip0_274:4374)">
<path d="M758.04 520.521H0V520.9H758.04V520.521Z" fill="#EBEBEB"/>
<path d="M682.085 544.919H631.872V545.299H682.085V544.919Z" fill="#EBEBEB"/>
<path d="M502.156 549.028H488.982V549.407H502.156V549.028Z" fill="#EBEBEB"/>
<path d="M630.356 530.833H601.262V531.212H630.356V530.833Z" fill="#EBEBEB"/>
<path d="M145.013 533.395H79.5336V533.774H145.013V533.395Z" fill="#EBEBEB"/>
<path d="M168.118 533.395H158.521V533.774H168.118V533.395Z" fill="#EBEBEB"/>
<path d="M341.346 539.794H199.319V540.173H341.346V539.794Z" fill="#EBEBEB"/>
<path d="M359.311 452.891H66.5711C64.2778 452.887 62.0798 451.973 60.4596 450.35C58.8394 448.727 57.9294 446.527 57.9294 444.233V32.6471C57.9494 30.3665 58.8682 28.1859 60.4862 26.5789C62.1043 24.9719 64.2909 24.0684 66.5711 24.0645H359.311C361.607 24.0645 363.809 24.9767 365.432 26.6004C367.056 28.2242 367.968 30.4265 367.968 32.7229V444.233C367.968 446.529 367.056 448.732 365.432 450.355C363.809 451.979 361.607 452.891 359.311 452.891ZM66.5711 24.3677C64.3783 24.3717 62.2767 25.2458 60.7276 26.798C59.1785 28.3503 58.3085 30.4539 58.3085 32.6471V444.233C58.3085 446.426 59.1785 448.53 60.7276 450.082C62.2767 451.634 64.3783 452.508 66.5711 452.512H359.311C361.505 452.508 363.609 451.635 365.16 450.083C366.712 448.531 367.585 446.427 367.589 444.233V32.6471C367.585 30.4525 366.712 28.3489 365.16 26.7971C363.609 25.2453 361.505 24.3717 359.311 24.3677H66.5711Z" fill="#EBEBEB"/>
<path d="M687.255 452.891H394.499C392.205 452.887 390.005 451.974 388.383 450.351C386.76 448.728 385.847 446.528 385.843 444.233V32.6471C385.866 30.3651 386.789 28.1845 388.409 26.578C390.03 24.9714 392.218 24.0683 394.499 24.0645H687.255C689.532 24.0723 691.715 24.9777 693.33 26.5842C694.944 28.1908 695.861 30.3691 695.881 32.6471V444.233C695.881 446.524 694.973 448.722 693.356 450.345C691.739 451.967 689.545 452.883 687.255 452.891ZM394.499 24.3677C392.305 24.3717 390.202 25.2453 388.65 26.7971C387.099 28.3489 386.226 30.4525 386.222 32.6471V444.233C386.226 446.427 387.099 448.531 388.65 450.083C390.202 451.635 392.305 452.508 394.499 452.512H687.255C689.449 452.508 691.552 451.635 693.103 450.083C694.655 448.531 695.528 446.427 695.532 444.233V32.6471C695.528 30.4525 694.655 28.3489 693.103 26.7971C691.552 25.2453 689.449 24.3717 687.255 24.3677H394.499Z" fill="#EBEBEB"/>
<path d="M586.451 132.484L600.095 142.477C517.454 255.658 413.617 323.318 291.33 343.562C204.914 357.876 138.494 342.257 128.2 339.604V370.795C157.714 377.043 187.815 380.094 217.982 379.894C243.719 379.889 269.413 377.815 294.817 373.692C353.464 364.184 409.775 343.638 460.767 313.143C522.123 276.569 577.172 225.194 624.504 160.431L637.937 170.302L638.164 116.092L586.451 132.484Z" fill="#E0E0E0"/>
<path d="M143.27 382.972H129.67V519.611H143.27V382.972Z" fill="#EBEBEB"/>
<path d="M176.078 389.037H162.478V519.611H176.078V389.037Z" fill="#EBEBEB"/>
<path d="M208.901 392.07H195.302V519.611H208.901V392.07Z" fill="#EBEBEB"/>
<path d="M241.709 392.07H228.109V519.611H241.709V392.07Z" fill="#EBEBEB"/>
<path d="M274.532 390.554H260.933V519.611H274.532V390.554Z" fill="#EBEBEB"/>
<path d="M307.34 386.004H293.741V519.611H307.34V386.004Z" fill="#EBEBEB"/>
<path d="M340.148 378.423H326.549V519.611H340.148V378.423Z" fill="#EBEBEB"/>
<path d="M372.971 370.841H359.372V519.611H372.971V370.841Z" fill="#EBEBEB"/>
<path d="M405.779 364.775H392.18V519.611H405.779V364.775Z" fill="#EBEBEB"/>
<path d="M438.602 344.941H425.003V519.611H438.602V344.941Z" fill="#EBEBEB"/>
<path d="M471.41 328.277H457.811V519.611H471.41V328.277Z" fill="#EBEBEB"/>
<path d="M504.233 309.307H490.634V519.611H504.233V309.307Z" fill="#EBEBEB"/>
<path d="M537.041 284.014H523.442V519.611H537.041V284.014Z" fill="#EBEBEB"/>
<path d="M569.864 257.614H556.265V519.611H569.864V257.614Z" fill="#EBEBEB"/>
<path d="M602.672 222.419H589.073V519.611H602.672V222.419Z" fill="#EBEBEB"/>
<path d="M635.496 184.025H621.896V519.611H635.496V184.025Z" fill="#EBEBEB"/>
<path d="M379.02 588.985C541.366 588.985 672.973 581.3 672.973 571.819C672.973 562.339 541.366 554.654 379.02 554.654C216.674 554.654 85.0673 562.339 85.0673 571.819C85.0673 581.3 216.674 588.985 379.02 588.985Z" fill="#F5F5F5"/>
<path d="M602.642 350.674C573.519 423.024 532.083 489.781 480.173 547.983L386.267 489.679C438.182 431.472 479.623 364.71 508.751 292.354L602.642 350.674Z" fill="#407BFF"/>
<path opacity="0.4" d="M602.657 350.658C573.517 423.011 532.072 489.772 480.158 547.982L439.573 522.78L386.267 489.693C438.182 431.486 479.623 364.724 508.751 292.369C540.043 311.819 571.345 331.248 602.657 350.658Z" fill="white"/>
<path opacity="0.2" d="M524.2 308.852C523.538 310.626 522.483 312.226 521.113 313.532C519.743 314.839 518.095 315.817 516.292 316.394C514.49 316.97 512.58 317.13 510.706 316.861C508.833 316.593 507.045 315.902 505.477 314.842C479.779 373.338 445.911 427.89 404.885 476.865C406.53 477.8 407.942 479.096 409.014 480.656C410.086 482.216 410.791 483.999 411.074 485.871C411.357 487.742 411.212 489.654 410.649 491.461C410.087 493.269 409.121 494.925 407.826 496.305L466.362 532.697C469.153 529.602 472.923 527.558 477.041 526.91C481.158 526.261 485.374 527.046 488.982 529.134C530.008 480.153 563.877 425.596 589.574 367.096C586.105 364.787 583.533 361.358 582.288 357.381C581.044 353.403 581.202 349.12 582.736 345.245V345.124L524.215 308.731L524.2 308.852ZM526.914 441.913C517.908 456.394 498.275 460.458 483.857 451.512C469.439 442.565 465.664 423.944 474.655 409.463C483.645 394.982 502.081 390.16 516.514 399.121C530.947 408.083 535.95 427.417 526.914 441.913Z" fill="black"/>
<g opacity="0.2">
<path opacity="0.2" d="M516.423 431.526L520.289 433.922C519.712 434.877 519.121 435.832 518.53 436.772L514.679 434.392C512.684 437.407 509.81 439.737 506.447 441.064L503.945 437.349C506.735 436.293 509.165 434.462 510.949 432.072L504.021 427.765C500.686 431.041 496.804 434.361 491.999 431.374C488.466 429.175 487.041 424.733 489.906 419.001L485.995 416.575C486.586 415.619 487.177 414.679 487.754 413.724L491.604 416.104C493.24 413.679 495.447 411.695 498.033 410.327L500.655 413.936C498.59 415.073 496.779 416.622 495.334 418.485L502.323 422.837C505.658 419.547 509.403 416.059 514.209 419.046C517.742 421.169 519.227 425.703 516.423 431.526ZM499.837 425.172L493.666 421.351C492.514 424.05 493.105 425.9 494.621 426.795C496.137 427.689 497.987 426.825 499.837 425.172ZM511.814 423.656C510.116 422.61 508.387 423.656 506.523 425.369L512.587 429.175C513.83 426.401 513.299 424.581 511.814 423.656Z" fill="black"/>
</g>
<path opacity="0.2" d="M602.657 350.659C573.517 423.012 532.072 489.773 480.158 547.983L439.573 522.781L407.356 468.359C407.356 468.359 535.844 415.104 602.657 350.659Z" fill="black"/>
<path d="M672.382 452.285C612.55 502.329 544.503 541.627 471.259 568.438C452.853 536.524 434.438 504.609 416.013 472.695C489.254 445.906 557.302 406.628 617.136 356.603C635.561 388.487 653.977 420.381 672.382 452.285Z" fill="#407BFF"/>
<path opacity="0.4" d="M672.382 452.285C612.55 502.329 544.503 541.627 471.259 568.438C452.853 536.524 434.438 504.609 416.013 472.695C489.254 445.906 557.302 406.628 617.136 356.603C635.561 388.487 653.977 420.381 672.382 452.285Z" fill="white"/>
<path opacity="0.2" d="M622.973 378.377C621.552 379.628 619.867 380.539 618.043 381.044C616.219 381.548 614.304 381.632 612.443 381.289C610.582 380.945 608.823 380.185 607.299 379.063C605.775 377.942 604.525 376.489 603.643 374.814C553.347 414.25 497.708 446.344 438.39 470.132C439.397 471.733 440.029 473.541 440.236 475.421C440.444 477.301 440.223 479.204 439.59 480.986C438.957 482.768 437.927 484.383 436.58 485.71C435.232 487.037 433.602 488.042 431.81 488.647L466.24 548.316C470.167 546.91 474.457 546.896 478.393 548.276C482.329 549.656 485.671 552.347 487.86 555.898C547.177 532.109 602.817 500.016 653.113 460.579C651.13 456.9 650.474 452.65 651.255 448.543C652.036 444.437 654.207 440.725 657.403 438.031L657.509 437.94L623.109 378.302L622.973 378.377ZM562.542 496.957C547.76 505.464 528.551 499.777 520.092 485.069C511.632 470.36 517.06 452.179 531.841 443.672C546.623 435.165 565.195 439.608 573.609 454.286C582.024 468.965 577.339 488.465 562.542 496.957Z" fill="black"/>
<g opacity="0.2">
<path opacity="0.2" d="M558.191 482.84C558.964 484.144 559.707 485.463 560.48 486.782L557.569 488.466L555.31 484.538C552.125 486.257 548.49 486.956 544.895 486.54C544.743 485.023 544.607 483.507 544.455 482.082C547.41 482.473 550.416 482.005 553.112 480.732L549.049 473.681C544.501 474.985 539.573 476.077 536.738 471.179C534.661 467.57 535.51 462.976 540.741 459.276C539.968 457.941 539.225 456.622 538.436 455.288L541.332 453.604L543.591 457.532C546.178 456.164 549.063 455.455 551.99 455.47C552.202 456.986 552.399 458.411 552.612 459.882C550.263 459.915 547.945 460.431 545.804 461.399C547.169 463.784 548.538 466.16 549.913 468.525C554.385 467.206 559.343 465.902 562.178 470.8C564.255 474.333 563.421 478.973 558.191 482.84ZM546.578 469.405L542.954 463.127C540.665 464.962 540.316 466.827 541.226 468.374C542.135 469.921 544.182 469.981 546.578 469.405ZM557.857 473.727C556.857 471.998 554.825 472.104 552.369 472.741C553.582 474.818 554.78 476.911 555.977 478.988C558.342 477.093 558.737 475.243 557.918 473.727H557.857Z" fill="black"/>
</g>
<path d="M579.188 568.377H638.361V556.762H579.188V568.377Z" fill="#407BFF"/>
<path opacity="0.2" d="M579.189 568.377H592.227V556.762H579.189V568.377Z" fill="black"/>
<path opacity="0.2" d="M598.488 556.747H593.743V568.362H598.488V556.747Z" fill="black"/>
<path opacity="0.2" d="M604.568 556.747H601.323V568.362H604.568V556.747Z" fill="black"/>
<path opacity="0.2" d="M610.526 556.747H608.904V568.362H610.526V556.747Z" fill="black"/>
<path opacity="0.2" d="M620.335 556.747H619.516V568.362H620.335V556.747Z" fill="black"/>
<path d="M581.978 556.823H641.151V545.208H581.978V556.823Z" fill="#407BFF"/>
<path opacity="0.2" d="M581.978 556.823H595.016V545.208H581.978V556.823Z" fill="black"/>
<path opacity="0.2" d="M601.278 545.192H596.532V556.808H601.278V545.192Z" fill="black"/>
<path opacity="0.2" d="M607.357 545.192H604.113V556.808H607.357V545.192Z" fill="black"/>
<path opacity="0.2" d="M613.315 545.192H611.693V556.808H613.315V545.192Z" fill="black"/>
<path opacity="0.2" d="M623.125 545.192H622.306V556.808H623.125V545.192Z" fill="black"/>
<path d="M576.702 545.268H635.875V533.653H576.702V545.268Z" fill="#407BFF"/>
<path opacity="0.2" d="M576.702 545.268H589.74V533.653H576.702V545.268Z" fill="black"/>
<path opacity="0.2" d="M595.986 533.638H591.241V545.253H595.986V533.638Z" fill="black"/>
<path opacity="0.2" d="M602.066 533.638H598.822V545.253H602.066V533.638Z" fill="black"/>
<path opacity="0.2" d="M608.024 533.638H606.402V545.253H608.024V533.638Z" fill="black"/>
<path opacity="0.2" d="M617.833 533.638H617.015V545.253H617.833V533.638Z" fill="black"/>
<path d="M579.188 533.713H638.361V522.098H579.188V533.713Z" fill="#407BFF"/>
<path opacity="0.2" d="M579.189 533.713H592.227V522.098H579.189V533.713Z" fill="black"/>
<path opacity="0.2" d="M598.488 522.083H593.743V533.698H598.488V522.083Z" fill="black"/>
<path opacity="0.2" d="M604.568 522.083H601.323V533.698H604.568V522.083Z" fill="black"/>
<path opacity="0.2" d="M610.526 522.083H608.904V533.698H610.526V522.083Z" fill="black"/>
<path opacity="0.2" d="M620.335 522.083H619.516V533.698H620.335V522.083Z" fill="black"/>
<path d="M580.689 522.159H639.862V510.543H580.689V522.159Z" fill="#407BFF"/>
<path opacity="0.2" d="M580.689 522.159H593.728V510.543H580.689V522.159Z" fill="black"/>
<path opacity="0.2" d="M600.004 510.528H595.259V522.144H600.004V510.528Z" fill="black"/>
<path opacity="0.2" d="M606.084 510.528H602.839V522.144H606.084V510.528Z" fill="black"/>
<path opacity="0.2" d="M612.042 510.528H610.42V522.144H612.042V510.528Z" fill="black"/>
<path opacity="0.2" d="M621.851 510.528H621.032V522.144H621.851V510.528Z" fill="black"/>
<path d="M579.173 510.604H638.346V498.989H579.173V510.604Z" fill="#407BFF"/>
<path opacity="0.2" d="M579.173 510.604H592.212V498.989H579.173V510.604Z" fill="black"/>
<path opacity="0.2" d="M598.488 498.974H593.743V510.589H598.488V498.974Z" fill="black"/>
<path opacity="0.2" d="M604.568 498.974H601.323V510.589H604.568V498.974Z" fill="black"/>
<path opacity="0.2" d="M610.526 498.974H608.904V510.589H610.526V498.974Z" fill="black"/>
<path opacity="0.2" d="M620.335 498.974H619.516V510.589H620.335V498.974Z" fill="black"/>
<path d="M579.173 499.049H638.346V487.434H579.173V499.049Z" fill="#407BFF"/>
<path opacity="0.2" d="M579.173 499.049H592.212V487.434H579.173V499.049Z" fill="black"/>
<path opacity="0.2" d="M598.488 487.419H593.743V499.034H598.488V487.419Z" fill="black"/>
<path opacity="0.2" d="M604.568 487.419H601.323V499.034H604.568V487.419Z" fill="black"/>
<path opacity="0.2" d="M610.526 487.419H608.904V499.034H610.526V487.419Z" fill="black"/>
<path opacity="0.2" d="M620.335 487.419H619.516V499.034H620.335V487.419Z" fill="black"/>
<path d="M582.206 487.495H641.378V475.879H582.206V487.495Z" fill="#407BFF"/>
<path opacity="0.2" d="M582.206 487.495H595.244V475.879H582.206V487.495Z" fill="black"/>
<path opacity="0.2" d="M601.52 475.864H596.775V487.48H601.52V475.864Z" fill="black"/>
<path opacity="0.2" d="M607.6 475.864H604.355V487.48H607.6V475.864Z" fill="black"/>
<path opacity="0.2" d="M613.558 475.864H611.936V487.48H613.558V475.864Z" fill="black"/>
<path opacity="0.2" d="M623.367 475.864H622.548V487.48H623.367V475.864Z" fill="black"/>
<path d="M579.173 475.94H638.346V464.325H579.173V475.94Z" fill="#407BFF"/>
<path opacity="0.2" d="M579.173 475.94H592.212V464.325H579.173V475.94Z" fill="black"/>
<path opacity="0.2" d="M598.488 464.31H593.743V475.925H598.488V464.31Z" fill="black"/>
<path opacity="0.2" d="M604.568 464.31H601.323V475.925H604.568V464.31Z" fill="black"/>
<path opacity="0.2" d="M610.526 464.31H608.904V475.925H610.526V464.31Z" fill="black"/>
<path opacity="0.2" d="M620.335 464.31H619.516V475.925H620.335V464.31Z" fill="black"/>
<path d="M576.141 464.385H635.314V452.77H576.141V464.385Z" fill="#407BFF"/>
<path opacity="0.2" d="M576.141 464.385H589.18V452.77H576.141V464.385Z" fill="black"/>
<path opacity="0.2" d="M595.456 452.755H590.711V464.37H595.456V452.755Z" fill="black"/>
<path opacity="0.2" d="M601.535 452.755H598.291V464.37H601.535V452.755Z" fill="black"/>
<path opacity="0.2" d="M607.494 452.755H605.872V464.37H607.494V452.755Z" fill="black"/>
<path opacity="0.2" d="M617.303 452.755H616.484V464.37H617.303V452.755Z" fill="black"/>
<path d="M527.005 568.377H586.178V556.762H527.005V568.377Z" fill="#407BFF"/>
<path opacity="0.2" d="M527.005 568.377H540.043V556.762H527.005V568.377Z" fill="black"/>
<path opacity="0.2" d="M546.289 556.747H541.544V568.362H546.289V556.747Z" fill="black"/>
<path opacity="0.2" d="M552.369 556.747H549.125V568.362H552.369V556.747Z" fill="black"/>
<path opacity="0.2" d="M558.327 556.747H556.705V568.362H558.327V556.747Z" fill="black"/>
<path opacity="0.2" d="M568.136 556.747H567.318V568.362H568.136V556.747Z" fill="black"/>
<path d="M530.037 556.823H589.21V545.208H530.037V556.823Z" fill="#407BFF"/>
<path opacity="0.2" d="M530.037 556.823H543.075V545.208H530.037V556.823Z" fill="black"/>
<path opacity="0.2" d="M549.322 545.192H544.576V556.808H549.322V545.192Z" fill="black"/>
<path opacity="0.2" d="M555.401 545.192H552.157V556.808H555.401V545.192Z" fill="black"/>
<path opacity="0.2" d="M561.359 545.192H559.737V556.808H561.359V545.192Z" fill="black"/>
<path opacity="0.2" d="M571.168 545.192H570.35V556.808H571.168V545.192Z" fill="black"/>
<path d="M527.005 545.268H586.178V533.653H527.005V545.268Z" fill="#407BFF"/>
<path opacity="0.2" d="M527.005 545.268H540.043V533.653H527.005V545.268Z" fill="black"/>
<path opacity="0.2" d="M546.289 533.638H541.544V545.253H546.289V533.638Z" fill="black"/>
<path opacity="0.2" d="M552.369 533.638H549.125V545.253H552.369V533.638Z" fill="black"/>
<path opacity="0.2" d="M558.327 533.638H556.705V545.253H558.327V533.638Z" fill="black"/>
<path opacity="0.2" d="M568.136 533.638H567.318V545.253H568.136V533.638Z" fill="black"/>
<path d="M528.521 533.713H587.694V522.098H528.521V533.713Z" fill="#407BFF"/>
<path opacity="0.2" d="M528.521 533.713H541.559V522.098H528.521V533.713Z" fill="black"/>
<path opacity="0.2" d="M547.806 522.083H543.06V533.698H547.806V522.083Z" fill="black"/>
<path opacity="0.2" d="M553.885 522.083H550.641V533.698H553.885V522.083Z" fill="black"/>
<path opacity="0.2" d="M559.843 522.083H558.221V533.698H559.843V522.083Z" fill="black"/>
<path opacity="0.2" d="M569.652 522.083H568.834V533.698H569.652V522.083Z" fill="black"/>
<path d="M527.005 522.159H586.178V510.543H527.005V522.159Z" fill="#407BFF"/>
<path opacity="0.2" d="M527.005 522.159H540.043V510.543H527.005V522.159Z" fill="black"/>
<path opacity="0.2" d="M546.305 510.528H541.559V522.144H546.305V510.528Z" fill="black"/>
<path opacity="0.2" d="M552.384 510.528H549.14V522.144H552.384V510.528Z" fill="black"/>
<path opacity="0.2" d="M558.343 510.528H556.72V522.144H558.343V510.528Z" fill="black"/>
<path opacity="0.2" d="M568.151 510.528H567.333V522.144H568.151V510.528Z" fill="black"/>
<path d="M531.553 510.604H590.726V498.989H531.553V510.604Z" fill="#407BFF"/>
<path opacity="0.2" d="M531.553 510.604H544.592V498.989H531.553V510.604Z" fill="black"/>
<path opacity="0.2" d="M550.853 498.974H546.107V510.589H550.853V498.974Z" fill="black"/>
<path opacity="0.2" d="M556.933 498.974H553.688V510.589H556.933V498.974Z" fill="black"/>
<path opacity="0.2" d="M562.891 498.974H561.269V510.589H562.891V498.974Z" fill="black"/>
<path opacity="0.2" d="M572.7 498.974H571.881V510.589H572.7V498.974Z" fill="black"/>
<path d="M487.89 88.4951H267.012C258.304 88.4951 251.245 95.5557 251.245 104.265V552.592C251.245 561.302 258.304 568.363 267.012 568.363H487.89C496.598 568.363 503.657 561.302 503.657 552.592V104.265C503.657 95.5557 496.598 88.4951 487.89 88.4951Z" fill="#263238"/>
<path d="M495.228 103.719V552.35C495.228 553.169 495.065 553.98 494.748 554.736C494.431 555.492 493.967 556.177 493.383 556.752C492.799 557.326 492.106 557.778 491.345 558.082C490.584 558.386 489.77 558.535 488.951 558.521H265.451C264.707 558.532 263.968 558.392 263.28 558.109C262.591 557.827 261.967 557.409 261.444 556.879C260.922 556.349 260.512 555.719 260.239 555.027C259.966 554.334 259.836 553.594 259.856 552.85V103.204C259.83 102.548 259.933 101.894 260.159 101.279C260.386 100.663 260.732 100.099 261.177 99.6171C261.622 99.1354 262.157 98.7462 262.753 98.4718C263.348 98.1973 263.992 98.043 264.647 98.0176H320.53C321.311 98.0319 322.07 98.2791 322.711 98.7275C323.351 99.1759 323.842 99.8052 324.123 100.535L326.443 106.236C326.728 106.96 327.222 107.583 327.861 108.026C328.501 108.468 329.258 108.711 330.036 108.723H425.17C425.945 108.718 426.701 108.481 427.341 108.043C427.981 107.606 428.476 106.987 428.763 106.267L431.082 100.55C431.36 99.8175 431.851 99.185 432.492 98.7338C433.132 98.2825 433.892 98.0331 434.675 98.0176H489.694C491.182 98.0455 492.598 98.6604 493.635 99.7284C494.672 100.796 495.244 102.231 495.228 103.719Z" fill="#407BFF"/>
<path opacity="0.7" d="M495.228 116.684H259.841V539.991H495.228V116.684Z" fill="white"/>
<path opacity="0.6" d="M372.213 101.794C373.996 101.794 375.442 100.348 375.442 98.5638C375.442 96.78 373.996 95.334 372.213 95.334C370.43 95.334 368.984 96.78 368.984 98.5638C368.984 100.348 370.43 101.794 372.213 101.794Z" fill="white"/>
<path opacity="0.6" d="M382.052 98.5789C382.052 98.9905 381.93 99.3927 381.701 99.7346C381.472 100.077 381.147 100.343 380.767 100.5C380.386 100.656 379.968 100.697 379.564 100.615C379.161 100.534 378.791 100.334 378.501 100.042C378.211 99.7504 378.015 99.3788 377.936 98.9748C377.858 98.5709 377.901 98.1527 378.061 97.7734C378.22 97.3941 378.489 97.0707 378.832 96.8442C379.176 96.6178 379.579 96.4985 379.99 96.5015C380.262 96.5015 380.532 96.5554 380.783 96.6599C381.034 96.7645 381.262 96.9178 381.454 97.1109C381.645 97.304 381.797 97.5331 381.9 97.7851C382.002 98.037 382.054 98.3068 382.052 98.5789Z" fill="white"/>
<path opacity="0.6" d="M286.388 110.513H289.298V106.631H286.388V110.513Z" fill="white"/>
<path opacity="0.6" d="M281.657 110.498H284.568V105.327H281.657V110.498Z" fill="white"/>
<path opacity="0.6" d="M276.912 110.498H279.823V104.038H276.912V110.498Z" fill="white"/>
<path opacity="0.6" d="M272.182 110.513H275.093V102.749H272.182V110.513Z" fill="white"/>
<path opacity="0.6" d="M469.212 105.206H467.483V109.087H469.212V105.206Z" fill="white"/>
<path opacity="0.6" d="M470.379 110.498H484.115V103.795H470.379V110.498Z" fill="white"/>
<path d="M495.349 116.729H259.553V154.942H495.349V116.729Z" fill="#263238"/>
<g opacity="0.7">
<path opacity="0.7" d="M282.673 143.054C282.474 143.055 282.276 143.016 282.091 142.941C281.906 142.865 281.738 142.754 281.597 142.614L275.927 136.912C275.644 136.628 275.486 136.244 275.486 135.843C275.486 135.443 275.644 135.058 275.927 134.774L281.612 129.088C281.895 128.802 282.281 128.641 282.683 128.64C283.085 128.638 283.472 128.797 283.757 129.08C284.043 129.364 284.204 129.749 284.205 130.151C284.207 130.554 284.048 130.94 283.765 131.226L279.217 135.775L283.765 140.324C283.907 140.465 284.02 140.633 284.097 140.818C284.174 141.002 284.213 141.2 284.213 141.401C284.213 141.601 284.174 141.799 284.097 141.984C284.02 142.169 283.907 142.336 283.765 142.477C283.633 142.645 283.468 142.782 283.28 142.882C283.092 142.981 282.885 143.039 282.673 143.054Z" fill="white"/>
</g>
<g opacity="0.7">
<path opacity="0.7" d="M485.843 130.301C485.843 130.643 485.742 130.977 485.552 131.261C485.362 131.546 485.092 131.767 484.776 131.898C484.46 132.029 484.113 132.063 483.778 131.996C483.442 131.93 483.134 131.765 482.893 131.523C482.651 131.281 482.486 130.973 482.42 130.638C482.353 130.303 482.387 129.955 482.518 129.639C482.649 129.324 482.87 129.054 483.155 128.864C483.439 128.674 483.773 128.572 484.115 128.572C484.573 128.572 485.013 128.754 485.337 129.079C485.661 129.403 485.843 129.842 485.843 130.301Z" fill="white"/>
<path opacity="0.7" d="M485.843 135.851C485.843 136.193 485.742 136.527 485.552 136.811C485.362 137.095 485.092 137.317 484.776 137.448C484.46 137.579 484.113 137.613 483.778 137.546C483.442 137.479 483.134 137.315 482.893 137.073C482.651 136.831 482.486 136.523 482.42 136.188C482.353 135.853 482.387 135.505 482.518 135.189C482.649 134.873 482.87 134.603 483.155 134.413C483.439 134.223 483.773 134.122 484.115 134.122C484.573 134.122 485.013 134.304 485.337 134.628C485.661 134.953 485.843 135.392 485.843 135.851Z" fill="white"/>
<path opacity="0.7" d="M485.843 141.401C485.843 141.742 485.742 142.077 485.552 142.361C485.362 142.645 485.092 142.867 484.776 142.998C484.46 143.128 484.113 143.163 483.778 143.096C483.442 143.029 483.134 142.865 482.893 142.623C482.651 142.381 482.486 142.073 482.42 141.738C482.353 141.402 482.387 141.055 482.518 140.739C482.649 140.423 482.87 140.153 483.155 139.963C483.439 139.773 483.773 139.672 484.115 139.672C484.573 139.672 485.013 139.854 485.337 140.178C485.661 140.502 485.843 140.942 485.843 141.401Z" fill="white"/>
</g>
<path d="M349.548 189.12V191.168H348.031V189.151C346.428 189.103 344.875 188.574 343.574 187.634L344.393 185.8C345.45 186.596 346.712 187.075 348.031 187.18V183.54C346.015 183.055 343.847 182.403 343.847 179.871C343.847 178.021 345.196 176.398 348.031 176.125V174.063H349.548V176.08C350.856 176.145 352.128 176.536 353.247 177.217L352.489 179.052C351.589 178.52 350.586 178.184 349.548 178.066V181.766C351.564 182.266 353.762 182.903 353.762 185.421C353.762 187.24 352.398 188.832 349.548 189.12ZM348.031 181.342V178.112C346.743 178.309 346.197 178.961 346.197 179.764C346.197 180.568 347.001 181.038 348.062 181.342H348.031ZM351.412 185.542C351.412 184.647 350.609 184.238 349.517 183.919V187.149C350.882 186.937 351.443 186.315 351.443 185.542H351.412Z" fill="#407BFF"/>
<path d="M364.633 176.247V188.984H362.343V178.233H359.645V176.247H364.633Z" fill="#407BFF"/>
<path d="M377.504 185.33C377.504 187.695 375.457 189.166 372.289 189.166C369.12 189.166 367.104 187.65 367.104 185.33C367.095 184.678 367.285 184.039 367.647 183.497C368.01 182.955 368.529 182.537 369.135 182.297C368.658 182.039 368.263 181.652 367.995 181.18C367.727 180.708 367.597 180.171 367.619 179.628C367.619 177.445 369.53 176.08 372.349 176.08C375.169 176.08 377.11 177.445 377.11 179.628C377.125 180.182 376.979 180.728 376.692 181.202C376.404 181.675 375.986 182.055 375.488 182.297C376.092 182.538 376.609 182.957 376.969 183.499C377.33 184.04 377.516 184.679 377.504 185.33ZM375.124 185.33C375.124 184.071 374.032 183.298 372.289 183.298C370.545 183.298 369.484 184.071 369.484 185.33C369.484 186.588 370.545 187.377 372.289 187.377C374.032 187.377 375.109 186.543 375.109 185.254L375.124 185.33ZM369.924 179.719C369.924 180.811 370.818 181.509 372.319 181.509C373.82 181.509 374.76 180.811 374.76 179.719C374.76 178.628 373.775 177.93 372.319 177.93C370.864 177.93 369.924 178.582 369.924 179.719Z" fill="#407BFF"/>
<path d="M379.126 187.604C379.126 187.304 379.215 187.011 379.382 186.762C379.548 186.512 379.785 186.318 380.062 186.203C380.339 186.089 380.644 186.059 380.938 186.117C381.232 186.176 381.502 186.32 381.714 186.532C381.926 186.744 382.071 187.014 382.129 187.308C382.188 187.603 382.158 187.907 382.043 188.185C381.928 188.462 381.734 188.698 381.485 188.865C381.235 189.032 380.942 189.121 380.642 189.121C380.24 189.121 379.855 188.961 379.57 188.676C379.286 188.392 379.126 188.006 379.126 187.604Z" fill="#407BFF"/>
<path d="M387.768 176.247V188.984H385.403V178.233H382.719V176.247H387.768Z" fill="#407BFF"/>
<path d="M399.518 186.983V188.984H390.133V187.468L395.197 182.676C396.425 181.493 396.713 180.75 396.713 180.038C396.713 178.87 395.909 178.203 394.348 178.203C393.774 178.164 393.199 178.263 392.671 178.493C392.143 178.722 391.678 179.075 391.316 179.522L389.663 178.248C390.25 177.546 390.993 176.989 391.833 176.623C392.672 176.258 393.585 176.092 394.499 176.141C397.259 176.141 399.048 177.551 399.048 179.795C399.029 180.582 398.83 181.354 398.464 182.051C398.099 182.748 397.577 183.351 396.94 183.813L393.529 187.058L399.518 186.983Z" fill="#407BFF"/>
<path d="M411.222 185.33C411.222 187.695 409.16 189.166 406.006 189.166C402.853 189.166 400.821 187.65 400.821 185.33C400.813 184.678 401.002 184.039 401.365 183.497C401.728 182.955 402.247 182.537 402.853 182.297C402.376 182.039 401.98 181.652 401.712 181.18C401.444 180.708 401.314 180.171 401.337 179.628C401.337 177.445 403.247 176.08 406.067 176.08C408.887 176.08 410.827 177.445 410.827 179.628C410.839 180.181 410.692 180.726 410.404 181.199C410.117 181.671 409.701 182.052 409.205 182.297C409.81 182.538 410.327 182.957 410.687 183.499C411.047 184.04 411.234 184.679 411.222 185.33ZM408.841 185.33C408.841 184.071 407.75 183.298 406.006 183.298C404.263 183.298 403.202 184.071 403.202 185.33C403.202 186.588 404.248 187.377 406.006 187.377C407.765 187.377 408.841 186.543 408.841 185.254V185.33ZM403.596 179.795C403.596 180.887 404.505 181.584 406.006 181.584C407.507 181.584 408.432 180.887 408.432 179.795C408.432 178.703 407.462 178.006 406.006 178.006C404.551 178.006 403.596 178.582 403.596 179.719V179.795Z" fill="#407BFF"/>
<path d="M362.177 264.59V265.712H361.343V264.59C360.454 264.566 359.593 264.275 358.871 263.756L359.326 262.74C359.914 263.177 360.613 263.439 361.343 263.498V261.481C360.221 261.209 359.023 260.845 359.023 259.45C359.023 258.418 359.766 257.524 361.343 257.372V256.235H362.177V257.357C362.899 257.382 363.604 257.591 364.223 257.964L363.814 258.979C363.309 258.692 362.753 258.507 362.177 258.434V260.481C363.298 260.754 364.511 261.102 364.511 262.513C364.511 263.529 363.753 264.423 362.177 264.59ZM361.343 260.268V258.464C360.63 258.585 360.327 258.949 360.327 259.389C360.327 259.829 360.827 260.102 361.343 260.268ZM363.223 262.604C363.223 262.103 362.783 261.876 362.177 261.694V263.483C362.904 263.377 363.223 263.028 363.223 262.604Z" fill="black"/>
<path d="M370.53 257.448V264.499H369.226V258.54H367.71V257.448H370.53Z" fill="black"/>
<path d="M374.366 257.448V264.499H373.062V258.54H371.546V257.448H374.366Z" fill="black"/>
<path d="M380.9 262.33C380.9 263.574 380.006 264.605 378.11 264.605C377.161 264.625 376.23 264.338 375.457 263.786L376.018 262.77C376.612 263.231 377.344 263.477 378.095 263.468C379.035 263.468 379.611 263.043 379.611 262.391C379.611 261.739 379.187 261.284 377.716 261.284H375.988L376.352 257.448H380.536V258.54H377.504L377.352 260.177H378.019C380.066 260.177 380.9 261.087 380.9 262.33Z" fill="black"/>
<path d="M383.265 263.741C383.247 264.041 383.17 264.335 383.038 264.605L382.522 266.031H381.704L382.113 264.514C381.967 264.455 381.844 264.351 381.759 264.218C381.675 264.085 381.634 263.929 381.643 263.771C381.627 263.655 381.636 263.538 381.67 263.426C381.703 263.314 381.76 263.21 381.837 263.122C381.914 263.034 382.009 262.963 382.115 262.915C382.222 262.866 382.337 262.841 382.454 262.841C382.571 262.841 382.687 262.866 382.793 262.915C382.899 262.963 382.994 263.034 383.071 263.122C383.148 263.21 383.205 263.314 383.238 263.426C383.272 263.538 383.281 263.655 383.265 263.771V263.741Z" fill="black"/>
<path d="M389.329 263.392V264.499H384.129V263.65L386.934 260.996C387.174 260.821 387.372 260.594 387.511 260.331C387.65 260.068 387.728 259.777 387.738 259.48C387.738 258.843 387.298 258.464 386.434 258.464C386.117 258.446 385.8 258.503 385.51 258.633C385.219 258.762 384.964 258.959 384.766 259.207L383.856 258.494C384.183 258.105 384.595 257.797 385.061 257.594C385.526 257.392 386.033 257.3 386.54 257.327C388.056 257.327 389.057 258.1 389.057 259.359C389.048 259.795 388.938 260.224 388.735 260.611C388.533 260.998 388.243 261.332 387.889 261.588L386.009 263.377L389.329 263.392Z" fill="black"/>
<path d="M390.057 260.966C390.057 258.646 391.331 257.342 392.998 257.342C394.666 257.342 395.955 258.646 395.955 260.966C395.955 263.286 394.681 264.605 392.998 264.605C391.316 264.605 390.057 263.286 390.057 260.966ZM394.605 260.966C394.605 259.268 393.938 258.479 392.968 258.479C391.998 258.479 391.346 259.268 391.346 260.966C391.346 262.664 392.013 263.468 392.968 263.468C393.923 263.468 394.636 262.679 394.636 260.966H394.605Z" fill="black"/>
<path d="M322.546 248.062C319.876 258.925 320.488 270.337 324.302 280.853C328.117 291.369 334.964 300.517 343.977 307.141C352.991 313.765 363.766 317.567 374.939 318.066C386.113 318.565 397.184 315.739 406.751 309.944C416.319 304.15 423.954 295.648 428.69 285.514C433.427 275.38 435.052 264.068 433.361 253.01C431.67 241.952 426.738 231.643 419.189 223.389C411.64 215.134 401.814 209.303 390.952 206.635C383.74 204.861 376.25 204.525 368.91 205.648C361.569 206.77 354.521 209.327 348.168 213.174C341.816 217.021 336.284 222.082 331.887 228.069C327.491 234.055 324.317 240.848 322.546 248.062ZM345.909 253.794C347.441 247.552 350.789 241.904 355.53 237.565C360.271 233.227 366.192 230.392 372.544 229.419C378.896 228.446 385.394 229.379 391.216 232.1C397.038 234.821 401.922 239.207 405.251 244.705C408.581 250.202 410.205 256.564 409.919 262.984C409.634 269.405 407.451 275.597 403.647 280.777C399.842 285.957 394.588 289.893 388.547 292.086C382.507 294.279 375.952 294.631 369.711 293.098C361.344 291.042 354.136 285.746 349.673 278.376C345.209 271.005 343.855 262.162 345.909 253.794Z" fill="#263238"/>
<path d="M329.247 291.141C334.43 299.59 341.742 306.528 350.45 311.26C359.157 315.992 368.956 318.352 378.863 318.104C388.77 317.856 398.438 315.008 406.898 309.846C415.358 304.684 422.313 297.388 427.067 288.691C431.82 279.994 434.205 270.2 433.982 260.29C433.76 250.381 430.937 240.704 425.798 232.229C420.659 223.754 413.383 216.779 404.699 212.002C396.016 207.225 386.23 204.815 376.322 205.012C378.173 204.981 380.006 205.378 381.678 206.172C383.35 206.967 384.816 208.137 385.961 209.592C387.106 211.047 387.899 212.747 388.278 214.559C388.657 216.372 388.612 218.247 388.147 220.039C387.491 222.597 385.997 224.861 383.902 226.469C381.824 228.103 379.268 229.014 376.625 229.062H375.943C381.659 228.795 387.345 230.044 392.425 232.682C397.504 235.32 401.796 239.253 404.868 244.083C407.939 248.913 409.681 254.468 409.916 260.188C410.151 265.907 408.871 271.587 406.206 276.653C403.541 281.719 399.586 285.991 394.74 289.036C389.894 292.082 384.33 293.793 378.611 293.997C372.891 294.201 367.219 292.89 362.169 290.197C357.119 287.504 352.869 283.525 349.851 278.662C348.175 275.917 345.483 273.944 342.361 273.173C340.051 272.604 337.624 272.735 335.388 273.549C333.153 274.362 331.209 275.822 329.804 277.742C328.399 279.662 327.596 281.957 327.497 284.335C327.398 286.712 328.007 289.065 329.247 291.096V291.141Z" fill="#407BFF"/>
<path d="M285.326 357.664H279.929V375.299H285.326V357.664Z" fill="#407BFF"/>
<path d="M298.88 362.213H293.483V375.3H298.88V362.213Z" fill="#407BFF"/>
<path d="M312.419 342.5H307.021V375.299H312.419V342.5Z" fill="#407BFF"/>
<path d="M325.972 334.919H320.575V375.3H325.972V334.919Z" fill="#407BFF"/>
<path d="M339.526 342.5H334.129V375.299H339.526V342.5Z" fill="#407BFF"/>
<path d="M353.065 357.664H347.668V375.299H353.065V357.664Z" fill="#407BFF"/>
<path d="M366.603 360.697H361.206V375.299H366.603V360.697Z" fill="#407BFF"/>
<path d="M380.157 362.213H374.76V375.3H380.157V362.213Z" fill="#407BFF"/>
<path d="M393.711 357.664H388.314V375.299H393.711V357.664Z" fill="#407BFF"/>
<path d="M407.25 350.083H401.852V375.3H407.25V350.083Z" fill="#407BFF"/>
<path d="M420.803 344.017H415.406V375.299H420.803V344.017Z" fill="#407BFF"/>
<path d="M434.342 337.952H428.945V375.3H434.342V337.952Z" fill="#407BFF"/>
<path d="M447.896 330.37H442.498V375.299H447.896V330.37Z" fill="#407BFF"/>
<path d="M461.449 340.984H456.052V375.3H461.449V340.984Z" fill="#407BFF"/>
<path d="M474.988 357.664H469.591V375.299H474.988V357.664Z" fill="#407BFF"/>
<path d="M312.419 342.5H307.021V350.082H312.419V342.5Z" fill="#263238"/>
<path d="M325.972 334.919H320.575V350.083H325.972V334.919Z" fill="#263238"/>
<path d="M339.526 342.5H334.129V350.082H339.526V342.5Z" fill="#263238"/>
<path d="M420.803 344.017H415.406V350.082H420.803V344.017Z" fill="#263238"/>
<path d="M434.342 337.952H428.945V350.083H434.342V337.952Z" fill="#263238"/>
<path d="M447.896 330.37H442.498V350.082H447.896V330.37Z" fill="#263238"/>
<path d="M461.449 340.984H456.052V350.083H461.449V340.984Z" fill="#263238"/>
<path d="M474.912 397.089H280.02C277.525 397.089 275.502 399.112 275.502 401.608V424.854C275.502 427.35 277.525 429.373 280.02 429.373H474.912C477.408 429.373 479.43 427.35 479.43 424.854V401.608C479.43 399.112 477.408 397.089 474.912 397.089Z" fill="#407BFF"/>
<g opacity="0.7">
<path opacity="0.7" d="M428.641 413.148H426.868V414.922H425.776V413.148H424.002V412.147H425.776V410.373H426.868V412.147H428.641V413.148Z" fill="white"/>
<path opacity="0.7" d="M435.722 416.257V417.394H434.903V416.272C434.013 416.253 433.151 415.962 432.432 415.438L432.886 414.422C433.475 414.857 434.173 415.119 434.903 415.18V413.163C433.781 412.89 432.583 412.526 432.583 411.131C432.583 410.1 433.326 409.205 434.903 409.054V407.901H435.722V409.023C436.444 409.061 437.147 409.275 437.768 409.645L437.359 410.661C436.858 410.365 436.3 410.179 435.722 410.115V412.162C436.843 412.42 438.056 412.784 438.056 414.179C438.056 415.286 437.313 416.105 435.722 416.257ZM434.903 411.935V410.146C434.175 410.252 433.872 410.616 433.872 411.071C433.872 411.525 434.312 411.768 434.903 411.935ZM436.768 414.27C436.768 413.785 436.328 413.542 435.722 413.375V415.165C436.464 415.043 436.768 414.71 436.768 414.27Z" fill="white"/>
<path opacity="0.7" d="M446.971 409.114V409.994L444.212 416.18H442.802L445.455 410.221H442.696V411.434H441.483V409.114H446.971Z" fill="white"/>
<path opacity="0.7" d="M452.717 414.012C452.717 415.256 451.822 416.287 449.927 416.287C448.978 416.306 448.047 416.019 447.274 415.468L447.835 414.452C448.434 414.901 449.164 415.141 449.912 415.134C450.852 415.134 451.428 414.725 451.428 414.058C451.428 413.39 451.004 412.966 449.533 412.966H447.835L448.199 409.114H452.338V410.221H449.306L449.154 411.859H449.821C451.883 411.859 452.717 412.754 452.717 414.012Z" fill="white"/>
<path opacity="0.7" d="M455.082 415.408C455.066 415.713 454.989 416.012 454.854 416.287L454.339 417.697H453.52L453.93 416.181C453.783 416.119 453.658 416.012 453.574 415.876C453.49 415.741 453.45 415.582 453.46 415.423C453.444 415.307 453.453 415.189 453.486 415.077C453.52 414.965 453.577 414.861 453.654 414.773C453.731 414.685 453.825 414.615 453.932 414.566C454.038 414.518 454.154 414.493 454.271 414.493C454.388 414.493 454.503 414.518 454.61 414.566C454.716 414.615 454.811 414.685 454.888 414.773C454.965 414.861 455.022 414.965 455.055 415.077C455.089 415.189 455.098 415.307 455.082 415.423V415.408Z" fill="white"/>
<path opacity="0.7" d="M455.81 412.648C455.81 410.328 457.083 409.023 458.751 409.023C460.418 409.023 461.783 410.328 461.783 412.648C461.783 414.968 460.525 416.287 458.751 416.287C456.977 416.287 455.81 414.968 455.81 412.648ZM460.358 412.648C460.358 410.949 459.691 410.161 458.72 410.161C457.75 410.161 457.098 410.949 457.098 412.648C457.098 414.346 457.765 415.134 458.72 415.134C459.676 415.134 460.388 414.361 460.388 412.648H460.358Z" fill="white"/>
<path opacity="0.7" d="M467.726 414.012C467.726 415.256 466.831 416.287 464.936 416.287C463.987 416.306 463.056 416.019 462.283 415.468L462.844 414.452C463.443 414.901 464.173 415.141 464.921 415.134C465.861 415.134 466.437 414.725 466.437 414.058C466.437 413.39 466.013 412.966 464.542 412.966H462.844L463.208 409.114H467.347V410.221H464.315L464.163 411.859H464.83C466.953 411.859 467.726 412.754 467.726 414.012Z" fill="white"/>
</g>
<path opacity="0.7" d="M337.722 410.737H290.239C289.76 410.737 289.301 410.547 288.963 410.208C288.624 409.87 288.434 409.411 288.434 408.932C288.432 408.694 288.478 408.458 288.567 408.237C288.657 408.017 288.79 407.816 288.957 407.647C289.125 407.478 289.325 407.343 289.545 407.252C289.764 407.16 290 407.113 290.239 407.113H337.722C338.202 407.117 338.661 407.31 338.999 407.651C339.337 407.992 339.526 408.452 339.526 408.932C339.522 409.41 339.331 409.866 338.993 410.204C338.656 410.542 338.199 410.733 337.722 410.737Z" fill="white"/>
<path opacity="0.7" d="M316.497 419.304H290.239C290 419.304 289.764 419.257 289.545 419.165C289.325 419.074 289.125 418.94 288.957 418.77C288.79 418.601 288.657 418.4 288.567 418.18C288.478 417.959 288.432 417.723 288.434 417.485C288.434 417.006 288.624 416.547 288.963 416.209C289.301 415.87 289.76 415.68 290.239 415.68H316.497C316.974 415.684 317.431 415.875 317.768 416.213C318.106 416.551 318.297 417.007 318.301 417.485C318.301 417.965 318.112 418.425 317.774 418.766C317.436 419.107 316.977 419.3 316.497 419.304Z" fill="white"/>
<path d="M474.912 441.064H280.02C277.525 441.064 275.502 443.087 275.502 445.583V468.829C275.502 471.324 277.525 473.347 280.02 473.347H474.912C477.408 473.347 479.43 471.324 479.43 468.829V445.583C479.43 443.087 477.408 441.064 474.912 441.064Z" fill="#407BFF"/>
<g opacity="0.7">
<path opacity="0.7" d="M425.154 456.819H427.929V457.88H425.154V456.819Z" fill="white"/>
<path opacity="0.7" d="M434.918 460.231V461.368H434.084V460.246C433.196 460.221 432.335 459.931 431.613 459.412L432.068 458.396C432.659 458.826 433.356 459.088 434.084 459.154V457.137C432.977 456.864 431.765 456.5 431.765 455.105C431.765 454.074 432.523 453.18 434.084 453.028V451.875H434.918V452.998C435.641 453.036 436.343 453.249 436.965 453.619L436.631 454.711C436.129 454.417 435.572 454.231 434.994 454.165V456.212C436.116 456.47 437.329 456.834 437.329 458.229C437.253 459.26 436.495 460.079 434.918 460.231ZM434.084 455.909V454.12C433.372 454.226 433.068 454.59 433.068 455.045C433.068 455.5 433.508 455.742 434.084 455.909ZM435.964 458.244C435.964 457.759 435.524 457.516 434.918 457.35V459.139C435.646 459.018 435.964 458.684 435.964 458.244Z" fill="white"/>
<path opacity="0.7" d="M445.97 457.986C445.97 459.23 445.076 460.261 443.165 460.261C442.216 460.277 441.287 459.99 440.512 459.442L441.073 458.426C441.673 458.873 442.402 459.113 443.15 459.108C444.09 459.108 444.666 458.699 444.666 458.032C444.666 457.365 444.227 456.94 442.771 456.94H441.058L441.422 453.088H445.561V454.195H442.529L442.377 455.833H443.059C445.136 455.833 445.97 456.728 445.97 457.986Z" fill="white"/>
<path opacity="0.7" d="M451.792 457.986C451.792 459.23 450.882 460.261 448.987 460.261C448.038 460.277 447.109 459.99 446.334 459.442L446.895 458.426C447.495 458.873 448.224 459.113 448.972 459.108C449.912 459.108 450.488 458.699 450.488 458.032C450.488 457.365 450.048 456.94 448.578 456.94H446.88L447.244 453.088H451.383V454.195H448.351L448.199 455.833H448.881C450.973 455.833 451.792 456.728 451.792 457.986Z" fill="white"/>
<path opacity="0.7" d="M454.172 459.381C454.156 459.687 454.079 459.986 453.945 460.261L453.429 461.671H452.611L453.005 460.155C452.86 460.089 452.739 459.982 452.655 459.847C452.571 459.712 452.53 459.555 452.535 459.397C452.528 459.287 452.545 459.177 452.584 459.074C452.622 458.97 452.682 458.877 452.759 458.798C452.836 458.72 452.929 458.658 453.031 458.617C453.134 458.577 453.243 458.558 453.353 458.563C453.462 458.561 453.569 458.58 453.669 458.621C453.769 458.661 453.861 458.721 453.937 458.798C454.013 458.874 454.074 458.965 454.114 459.066C454.154 459.166 454.174 459.273 454.172 459.381Z" fill="white"/>
<path opacity="0.7" d="M461.268 458.547H460.009V460.155H458.736V458.547H454.824V457.637L458.296 453.088H459.706L456.431 457.44H458.736V456.015H459.964V457.44H461.222L461.268 458.547Z" fill="white"/>
<path opacity="0.7" d="M467.635 458.123C467.635 459.442 466.498 460.261 464.739 460.261C462.981 460.261 461.874 459.442 461.874 458.123C461.865 457.761 461.968 457.405 462.169 457.104C462.369 456.803 462.658 456.571 462.996 456.44C462.718 456.299 462.487 456.081 462.331 455.812C462.175 455.543 462.1 455.234 462.116 454.923C462.116 453.725 463.178 452.967 464.739 452.967C466.301 452.967 467.392 453.725 467.392 454.923C467.406 455.237 467.326 455.548 467.165 455.818C467.003 456.087 466.766 456.304 466.483 456.44C466.825 456.568 467.119 456.798 467.325 457.099C467.531 457.4 467.639 457.758 467.635 458.123ZM466.316 458.123C466.316 457.425 465.71 456.986 464.8 456.986C463.89 456.986 463.284 457.425 463.284 458.123C463.284 458.82 463.875 459.26 464.8 459.26C465.725 459.26 466.316 458.805 466.316 458.093V458.123ZM463.42 455.09C463.42 455.697 463.921 456.091 464.739 456.091C465.558 456.091 466.104 455.697 466.104 455.09C466.104 454.484 465.558 454.089 464.739 454.089C463.921 454.089 463.42 454.378 463.42 455.014V455.09Z" fill="white"/>
</g>
<path opacity="0.7" d="M337.722 454.711H290.239C289.76 454.711 289.301 454.521 288.963 454.183C288.624 453.844 288.434 453.385 288.434 452.907C288.432 452.668 288.478 452.432 288.567 452.211C288.657 451.991 288.79 451.79 288.957 451.621C289.125 451.452 289.325 451.317 289.545 451.226C289.764 451.134 290 451.087 290.239 451.087H337.722C338.202 451.091 338.661 451.284 338.999 451.625C339.337 451.966 339.526 452.427 339.526 452.907C339.522 453.384 339.331 453.841 338.993 454.178C338.656 454.516 338.199 454.707 337.722 454.711Z" fill="white"/>
<path opacity="0.7" d="M316.497 463.279H290.239C290 463.279 289.764 463.232 289.545 463.14C289.325 463.048 289.125 462.914 288.957 462.745C288.79 462.576 288.657 462.375 288.567 462.154C288.478 461.934 288.432 461.698 288.434 461.459C288.434 460.981 288.624 460.522 288.963 460.183C289.301 459.845 289.76 459.655 290.239 459.655H316.497C316.974 459.659 317.431 459.85 317.768 460.188C318.106 460.525 318.297 460.982 318.301 461.459C318.301 461.939 318.112 462.4 317.774 462.741C317.436 463.081 316.977 463.275 316.497 463.279Z" fill="white"/>
<path d="M474.912 485.039H280.02C277.525 485.039 275.502 487.062 275.502 489.557V512.803C275.502 515.299 277.525 517.322 280.02 517.322H474.912C477.408 517.322 479.43 515.299 479.43 512.803V489.557C479.43 487.062 477.408 485.039 474.912 485.039Z" fill="#407BFF"/>
<g opacity="0.7">
<path opacity="0.7" d="M429.794 501.097H428.005V502.871H426.928V501.097H425.154V500.096H426.928V498.322H428.005V500.096H429.794V501.097Z" fill="white"/>
<path opacity="0.7" d="M436.874 504.205V505.343H436.04V504.22C435.151 504.196 434.29 503.905 433.569 503.386L434.024 502.37C434.615 502.801 435.312 503.063 436.04 503.129V501.112C434.933 500.839 433.72 500.475 433.72 499.08C433.72 498.049 434.478 497.154 436.04 497.003V495.85H436.874V496.972C437.596 497.01 438.299 497.224 438.92 497.594L438.511 498.61C438.009 498.316 437.452 498.13 436.874 498.064V500.111C437.996 500.369 439.209 500.733 439.209 502.128C439.209 503.235 438.451 504.054 436.874 504.205ZM436.04 499.884V498.094C435.327 498.2 435.024 498.564 435.024 499.019C435.024 499.474 435.464 499.717 436.04 499.884ZM437.92 502.219C437.92 501.734 437.48 501.491 436.874 501.324V503.113C437.617 502.992 437.92 502.659 437.92 502.219Z" fill="white"/>
<path opacity="0.7" d="M445.227 497.063V504.129H443.924V498.17H442.407V497.063H445.227Z" fill="white"/>
<path opacity="0.7" d="M452.353 502.098C452.353 503.417 451.216 504.236 449.457 504.236C447.699 504.236 446.592 503.417 446.592 502.098C446.583 501.736 446.686 501.38 446.887 501.078C447.087 500.777 447.376 500.545 447.714 500.414C447.436 500.274 447.205 500.056 447.049 499.787C446.893 499.517 446.819 499.209 446.834 498.898C446.834 497.7 447.896 496.942 449.457 496.942C451.019 496.942 452.11 497.7 452.11 498.898C452.123 499.21 452.045 499.519 451.887 499.788C451.728 500.057 451.495 500.275 451.216 500.414C451.555 500.545 451.846 500.776 452.049 501.077C452.252 501.378 452.359 501.734 452.353 502.098ZM451.034 502.098C451.034 501.4 450.428 500.96 449.518 500.96C448.608 500.96 448.002 501.4 448.002 502.098C448.002 502.795 448.593 503.235 449.518 503.235C450.443 503.235 451.034 502.78 451.034 502.067V502.098ZM448.138 499.065C448.138 499.671 448.639 500.066 449.457 500.066C450.276 500.066 450.822 499.671 450.822 499.065C450.822 498.458 450.276 498.064 449.457 498.064C448.639 498.064 448.138 498.352 448.138 498.989V499.065Z" fill="white"/>
<path opacity="0.7" d="M454.915 503.356C454.899 503.661 454.822 503.961 454.688 504.235L454.172 505.646H453.308L453.717 504.129C453.569 504.068 453.443 503.962 453.356 503.826C453.269 503.691 453.226 503.532 453.232 503.371C453.232 503.154 453.318 502.946 453.472 502.792C453.626 502.639 453.834 502.552 454.051 502.552C454.268 502.552 454.476 502.639 454.63 502.792C454.783 502.946 454.87 503.154 454.87 503.371L454.915 503.356Z" fill="white"/>
<path opacity="0.7" d="M460.979 503.022V504.129H455.779V503.235L458.584 500.566C459.266 499.914 459.388 499.505 459.388 499.05C459.388 498.398 458.933 498.034 458.069 498.034C457.755 498.017 457.443 498.074 457.155 498.201C456.868 498.327 456.615 498.519 456.416 498.762L455.506 498.064C455.83 497.672 456.242 497.362 456.708 497.159C457.175 496.956 457.682 496.866 458.19 496.896C459.706 496.896 460.707 497.67 460.707 498.913C460.698 499.35 460.588 499.778 460.385 500.165C460.183 500.552 459.893 500.886 459.539 501.142L457.644 502.947L460.979 503.022Z" fill="white"/>
<path opacity="0.7" d="M461.707 500.596C461.707 498.276 462.966 496.972 464.648 496.972C466.331 496.972 467.605 498.276 467.605 500.596C467.605 502.916 466.331 504.236 464.648 504.236C462.966 504.236 461.707 502.916 461.707 500.596ZM466.255 500.596C466.255 498.898 465.588 498.109 464.618 498.109C463.648 498.109 462.996 498.898 462.996 500.596C462.996 502.295 463.663 503.083 464.618 503.083C465.573 503.083 466.286 502.31 466.286 500.596H466.255Z" fill="white"/>
</g>
<path opacity="0.7" d="M337.722 498.686H290.239C289.76 498.686 289.301 498.495 288.963 498.157C288.624 497.819 288.434 497.36 288.434 496.881C288.432 496.643 288.478 496.407 288.567 496.186C288.657 495.965 288.79 495.765 288.957 495.595C289.125 495.426 289.325 495.292 289.545 495.2C289.764 495.109 290 495.062 290.239 495.062H337.722C338.202 495.066 338.661 495.259 338.999 495.6C339.337 495.941 339.526 496.401 339.526 496.881C339.522 497.358 339.331 497.815 338.993 498.153C338.656 498.49 338.199 498.682 337.722 498.686Z" fill="white"/>
<path opacity="0.7" d="M316.497 507.253H290.239C290 507.253 289.764 507.206 289.545 507.114C289.325 507.023 289.125 506.888 288.957 506.719C288.79 506.55 288.657 506.349 288.567 506.129C288.478 505.908 288.432 505.672 288.434 505.433C288.434 504.955 288.624 504.496 288.963 504.157C289.301 503.819 289.76 503.629 290.239 503.629H316.497C316.974 503.633 317.431 503.824 317.768 504.162C318.106 504.499 318.297 504.956 318.301 505.433C318.301 505.913 318.112 506.374 317.774 506.715C317.436 507.056 316.977 507.249 316.497 507.253Z" fill="white"/>
<path d="M165.653 176.844L186.454 176.859C189.543 176.861 192.05 174.358 192.052 171.267L192.067 150.463C192.069 147.373 189.566 144.866 186.476 144.864L165.675 144.849C162.586 144.847 160.079 147.35 160.077 150.441L160.063 171.245C160.061 174.335 162.563 176.842 165.653 176.844Z" fill="#407BFF"/>
<path opacity="0.6" d="M167.269 154.563C169.543 150.893 173.849 152.304 176.078 155.154C178.306 152.304 182.627 150.909 184.886 154.578C188.692 160.765 180.838 166.497 177.124 168.726L176.078 169.363C175.774 169.196 175.441 168.983 175.016 168.726C171.317 166.482 163.464 160.75 167.269 154.563Z" fill="white"/>
<path d="M172.636 174.382C172.636 174.382 176.82 183.98 186.281 186.983C186.281 186.983 181.081 183.95 181.49 173.987L172.636 174.382Z" fill="#407BFF"/>
<path d="M163.737 237.644C163.76 237.821 163.743 238.002 163.688 238.172C163.632 238.342 163.539 238.498 163.415 238.627C163.292 238.757 163.141 238.857 162.973 238.92C162.806 238.984 162.627 239.009 162.448 238.994L148.576 238.63C148.193 238.61 147.83 238.454 147.552 238.19C147.274 237.925 147.099 237.571 147.06 237.189L144.695 209.758C144.68 209.573 144.703 209.386 144.76 209.21C144.818 209.033 144.91 208.87 145.031 208.729C145.153 208.588 145.3 208.472 145.466 208.389C145.632 208.305 145.813 208.255 145.999 208.242L159.84 208.621C160.24 208.678 160.608 208.87 160.884 209.165C161.159 209.46 161.326 209.841 161.357 210.243L163.737 237.644Z" fill="#263238"/>
<path opacity="0.5" d="M159.856 210.001L162.221 237.69C162.258 237.851 162.255 238.019 162.215 238.18C162.174 238.341 162.095 238.489 161.986 238.614C161.876 238.738 161.739 238.835 161.584 238.895C161.43 238.956 161.264 238.979 161.099 238.963L149.364 238.645C148.576 238.645 147.136 238.144 147.075 237.371L144.68 209.591C144.68 208.803 145.984 208.212 146.772 208.242L158.506 208.56C158.874 208.58 159.219 208.741 159.471 209.009C159.722 209.278 159.86 209.633 159.856 210.001Z" fill="white"/>
<path d="M155.095 245.18L153.473 239.843C154.178 237.92 154.721 235.942 155.095 233.929C155.232 232.125 150.441 218.083 150.441 218.083C150.441 218.083 145.195 222.238 142.042 224.33C138.888 226.423 143.906 239.979 144.695 240.328C145.483 240.677 147.014 241.571 147.014 241.571L148.06 245.923L155.095 245.18Z" fill="#E4897B"/>
<path d="M146.438 250.139C148.06 256.417 155.08 281.801 163.479 285.213C165.677 286.107 168.27 285.546 171.059 284.136C180.156 279.42 190.465 265.197 190.465 265.197L188.388 254.825L186.463 245.181C178.882 248.926 170.165 267.183 167.754 267.047C165.723 266.94 160.674 251.307 159.188 246.545C159.063 246.184 158.807 245.883 158.469 245.703C158.132 245.523 157.739 245.477 157.369 245.575L147.545 248.35C147.165 248.447 146.837 248.688 146.631 249.021C146.424 249.355 146.355 249.756 146.438 250.139Z" fill="#407BFF"/>
<path d="M155.686 242.314L156.505 245.787L147.469 248.35L146.393 244.559L155.686 242.314Z" fill="#407BFF"/>
<path opacity="0.2" d="M155.686 242.314L156.505 245.787L147.469 248.35L146.393 244.559L155.686 242.314Z" fill="black"/>
<path opacity="0.2" d="M170.984 284.135C180.08 279.42 190.389 265.196 190.389 265.196L188.312 254.824C183.628 259.176 172.469 270.822 170.984 284.135Z" fill="black"/>
<path d="M239.859 439.335L239.783 426.098C239.785 425.882 239.859 425.674 239.994 425.506C240.129 425.338 240.316 425.22 240.526 425.173L250.229 422.974C250.645 422.884 251.08 422.962 251.438 423.193C251.796 423.423 252.049 423.786 252.139 424.202C252.154 424.318 252.154 424.435 252.139 424.551C252.139 428.842 251.851 431.966 251.866 437.349C251.866 440.655 252.291 450.647 252.306 455.227C252.321 459.806 247.758 460.413 247.394 458.548C245.514 450.162 242.952 443.839 240.526 441.17C240.077 440.666 239.839 440.01 239.859 439.335Z" fill="#263238"/>
<path d="M180.747 317.42L176.472 339.847C176.472 339.847 142.678 394.557 142.694 426.143C142.694 463.885 241.133 442.11 241.133 442.11V424.733C241.133 424.733 182.309 429.797 177.003 423.899C170.574 416.726 210.235 361.288 210.235 361.288L180.747 317.42Z" fill="#263238"/>
<path opacity="0.2" d="M142.694 426.143C142.694 446.947 172.621 449.662 199.471 447.918C212.844 446.962 226.142 445.149 239.283 442.489C240.466 442.262 241.118 442.11 241.118 442.11V424.733L238.965 424.9C232.279 425.445 211.448 426.947 195.696 426.719C186.326 426.598 178.746 425.825 177.003 423.884C173.834 420.366 181.808 405.187 190.738 390.66C199.971 375.648 210.235 361.303 210.235 361.303L197.318 342.061L180.762 317.435L176.472 339.862C176.472 339.862 142.678 394.557 142.694 426.143Z" fill="white"/>
<path opacity="0.2" d="M195.696 426.719L199.471 447.948C212.844 446.992 226.142 445.179 239.283 442.519L238.965 424.93C232.279 425.445 211.448 426.946 195.696 426.719Z" fill="black"/>
<path opacity="0.2" d="M197.257 366.049C197.257 366.049 191.769 378.984 190.738 390.645C199.971 375.633 210.235 361.288 210.235 361.288L197.318 342.045L190.511 339.847C190.511 339.847 188.995 348.687 197.257 366.049Z" fill="black"/>
<path d="M206.051 555.958H219.286C219.504 555.958 219.716 556.033 219.884 556.171C220.053 556.31 220.169 556.502 220.211 556.716L222.364 566.421C222.408 566.627 222.411 566.84 222.372 567.048C222.333 567.255 222.254 567.453 222.138 567.629C222.023 567.805 221.873 567.957 221.698 568.075C221.524 568.193 221.327 568.275 221.12 568.317C221.005 568.333 220.887 568.333 220.772 568.317C216.496 568.241 213.373 567.983 207.991 567.983C204.671 567.983 194.68 568.332 190.101 568.332C185.523 568.332 184.932 563.783 186.812 563.389C195.211 561.554 201.533 559.021 204.216 556.61C204.722 556.167 205.378 555.934 206.051 555.958Z" fill="#263238"/>
<path d="M239.723 318.133C239.723 318.133 242.649 329.126 239.723 379.469C235.175 456.804 220.878 559.674 220.878 559.674L204.201 556.641C204.201 556.641 206.339 402.7 204.095 360.212C204.095 360.212 180.565 339.104 180.732 317.405C180.899 295.706 239.723 318.133 239.723 318.133Z" fill="#263238"/>
<path opacity="0.2" d="M239.723 318.133C239.723 318.133 242.649 329.126 239.723 379.469C235.175 456.804 220.878 559.674 220.878 559.674L204.201 556.641C204.201 556.641 206.339 402.7 204.095 360.212C204.095 360.212 180.565 339.104 180.732 317.405C180.899 295.706 239.723 318.133 239.723 318.133Z" fill="white"/>
<path d="M179.519 315.979C179.515 316.236 179.562 316.49 179.657 316.728C179.751 316.966 179.892 317.183 180.071 317.366C180.25 317.549 180.464 317.695 180.7 317.796C180.935 317.896 181.188 317.949 181.445 317.951L236.327 319.179L240.223 319.27C240.732 319.287 241.227 319.104 241.603 318.762C241.98 318.419 242.208 317.943 242.239 317.435L243.346 302.984L243.937 295.205L246.757 258.145L247.349 250.321C220.468 230.244 186.387 245.181 186.387 245.181C180.262 264.454 179.595 305.471 179.519 315.979Z" fill="#407BFF"/>
<path d="M241.254 319.012L179.898 317.132L179.186 320.786L241.254 322.803V319.012Z" fill="#407BFF"/>
<path opacity="0.2" d="M241.254 319.012L179.898 317.132L179.186 320.786L241.254 322.803V319.012Z" fill="black"/>
<path opacity="0.2" d="M243.937 295.205L246.757 258.146C245.087 258.676 243.54 259.538 242.209 260.678C242.209 260.678 232.627 275.599 243.937 295.205Z" fill="black"/>
<path opacity="0.2" d="M236.327 319.179L240.223 319.27C240.732 319.286 241.227 319.104 241.604 318.761C241.98 318.419 242.208 317.943 242.239 317.435L243.346 302.984C240.657 308.224 238.312 313.633 236.327 319.179Z" fill="black"/>
<g opacity="0.7">
<path opacity="0.7" d="M185.811 275.007L186.478 273.248C187.378 273.834 188.437 274.126 189.51 274.082C190.753 274.082 191.254 273.597 191.223 272.93C191.132 271.08 186.038 273.051 185.856 269.184C185.856 267.35 187.145 266.152 189.404 265.985C190.51 265.915 191.613 266.157 192.588 266.682L191.906 268.441C191.182 267.985 190.334 267.767 189.48 267.82C188.282 267.82 187.736 268.35 187.767 268.987C187.858 270.959 192.952 268.987 193.134 272.778C193.209 274.583 191.83 275.811 189.465 275.947C188.177 276.037 186.895 275.707 185.811 275.007Z" fill="white"/>
</g>
<path d="M228.458 244.68C223.182 249.487 210.265 247.713 210.265 247.713C210.265 247.713 202.185 245.499 203.883 242.967C208.643 242.178 210.948 239.934 211.903 237.114C212.415 235.353 212.575 233.508 212.373 231.685C212.301 230.667 212.169 229.655 211.978 228.652L227.988 216.794C225.896 224.619 223.288 239.009 228.458 244.68Z" fill="#E4897B"/>
<path opacity="0.2" d="M224.259 224.331C223.622 233.929 215.723 236.583 211.872 237.113C212.385 235.353 212.545 233.508 212.342 231.685L224.259 224.331Z" fill="black"/>
<path d="M233.279 191.911C233.279 191.911 237.752 206.362 230.763 213.216C223.774 220.069 219.635 192.563 219.635 192.563L233.279 191.911Z" fill="#263238"/>
<path d="M209.75 228.379C211.763 230.547 214.427 232.003 217.339 232.525C220.252 233.047 223.255 232.609 225.896 231.275C229.346 229.58 232.023 226.636 233.386 223.041C233.583 222.556 233.734 222.041 233.886 221.525C236.387 211.911 235.25 195.929 224.789 191.441C223.021 190.668 221.119 190.251 219.19 190.214C217.261 190.176 215.343 190.52 213.547 191.224C211.75 191.928 210.11 192.979 208.72 194.317C207.33 195.655 206.217 197.254 205.444 199.022C204.507 201.137 204.091 203.446 204.231 205.755C204.671 216.46 204.413 222.799 209.75 228.379Z" fill="#E4897B"/>
<path d="M220.514 209.061C220.514 209.925 220.939 210.653 221.515 210.653C222.091 210.653 222.561 209.971 222.591 209.137C222.621 208.303 222.151 207.544 221.575 207.544C220.999 207.544 220.529 208.166 220.514 209.061Z" fill="#263238"/>
<path d="M230.444 209.258C230.368 210.122 230.884 210.85 231.445 210.865C232.006 210.881 232.491 210.168 232.521 209.349C232.552 208.53 232.082 207.757 231.505 207.757C230.929 207.757 230.444 208.424 230.444 209.258Z" fill="#263238"/>
<path d="M227.245 209.622C228.226 212.327 229.583 214.879 231.278 217.204C230.668 217.623 229.972 217.903 229.241 218.024C228.51 218.145 227.761 218.103 227.048 217.901L227.245 209.622Z" fill="#DE5753"/>
<path d="M217.512 205.801C217.605 205.814 217.701 205.802 217.788 205.768C217.876 205.733 217.953 205.677 218.012 205.603C218.4 205.089 218.902 204.673 219.478 204.386C220.054 204.099 220.689 203.95 221.333 203.951C221.456 203.943 221.573 203.892 221.662 203.806C221.75 203.72 221.805 203.605 221.816 203.482C221.827 203.359 221.794 203.236 221.722 203.135C221.65 203.035 221.544 202.964 221.424 202.935C220.61 202.912 219.803 203.084 219.069 203.438C218.336 203.791 217.698 204.316 217.209 204.967C217.162 205.013 217.124 205.069 217.099 205.13C217.073 205.191 217.06 205.257 217.06 205.323C217.06 205.389 217.073 205.455 217.099 205.516C217.124 205.577 217.162 205.633 217.209 205.679C217.3 205.74 217.404 205.782 217.512 205.801Z" fill="#263238"/>
<path d="M234.705 205.937C234.804 205.959 234.908 205.959 235.008 205.937C235.132 205.88 235.231 205.778 235.281 205.651C235.332 205.524 235.332 205.382 235.281 205.255C234.967 204.491 234.472 203.815 233.838 203.287C233.204 202.758 232.45 202.393 231.642 202.222C231.507 202.205 231.372 202.241 231.264 202.323C231.156 202.406 231.085 202.527 231.066 202.662C231.049 202.796 231.085 202.932 231.167 203.04C231.25 203.148 231.371 203.219 231.506 203.238C232.133 203.388 232.716 203.683 233.208 204.099C233.7 204.515 234.088 205.041 234.341 205.634C234.374 205.709 234.424 205.776 234.487 205.828C234.55 205.881 234.625 205.918 234.705 205.937Z" fill="#263238"/>
<path d="M212.418 192.487L213.131 197.203C212.325 197.605 211.705 198.302 211.398 199.148C211.09 199.994 211.119 200.926 211.478 201.752C213.115 205.694 211.023 211.927 208.037 214.474C208.037 214.474 207.9 212.761 206.521 213.2C205.141 213.64 205.717 222.632 208.673 226.848C204.905 222.947 202.215 218.135 200.866 212.882C198.379 204.223 198.637 197.809 200.335 194.382L212.418 192.487Z" fill="#263238"/>
<path d="M199.395 214.444C200.545 216.894 202.615 218.79 205.156 219.721C208.522 220.934 210.478 217.977 209.704 214.656C209.052 211.699 206.505 207.423 203.018 207.681C202.256 207.739 201.52 207.988 200.879 208.405C200.239 208.822 199.713 209.394 199.352 210.069C198.991 210.743 198.806 211.497 198.813 212.262C198.821 213.027 199.021 213.777 199.395 214.444Z" fill="#E4897B"/>
<path d="M225.896 221.04C224.747 222.194 223.683 223.431 222.712 224.74L221.954 224.345C218.498 222.526 217.512 220.539 217.406 218.886C217.394 218.083 217.571 217.289 217.921 216.566C218.111 216.152 218.361 215.769 218.664 215.429C220.307 217.502 222.375 219.198 224.729 220.403C225.381 220.812 225.896 221.04 225.896 221.04Z" fill="#263238"/>
<path d="M224.668 220.403L223.713 221.464C220.469 219.736 218.407 218.098 217.906 216.566C218.096 216.152 218.346 215.769 218.649 215.429C220.279 217.497 222.331 219.192 224.668 220.403Z" fill="white"/>
<path d="M221.894 224.346C218.437 222.526 217.452 220.54 217.345 218.887C218.641 219.61 219.801 220.554 220.772 221.677C221.416 222.427 221.809 223.36 221.894 224.346Z" fill="#DE5753"/>
<path d="M198.97 201.479C198.566 198.992 198.843 196.442 199.772 194.101C200.701 191.759 202.247 189.713 204.246 188.18C211.296 182.282 231.096 179.522 234.098 188.18C237.1 196.839 222.485 204.785 211.872 197.127L198.97 201.479Z" fill="#263238"/>
<path d="M226.654 237.432L211.281 244.361L210.387 238.812L204.671 240.798C203.693 241.152 202.863 241.824 202.313 242.707C201.763 243.59 201.526 244.632 201.639 245.665L202.275 251.731L210.068 247.47L213.949 252.959L232.415 244.073L226.654 237.432Z" fill="#407BFF"/>
<path opacity="0.7" d="M226.654 237.432L211.281 244.361L210.387 238.812L204.671 240.798C203.693 241.152 202.863 241.824 202.313 242.707C201.763 243.59 201.526 244.632 201.639 245.665L202.275 251.731L210.068 247.47L213.949 252.959L232.415 244.073L226.654 237.432Z" fill="white"/>
<path opacity="0.2" d="M229.11 322.788C229.11 322.788 229.459 330.991 240.056 334.494C240.407 330.552 240.12 326.578 239.207 322.727L229.11 322.788Z" fill="black"/>
<path d="M247.349 250.321C256.748 259.419 270.742 288.518 266.588 301.104C263.07 311.809 246.681 327.913 241.815 332.523C241.639 332.691 241.432 332.823 241.205 332.91C240.977 332.996 240.735 333.037 240.492 333.028C240.249 333.02 240.01 332.963 239.789 332.86C239.568 332.758 239.371 332.612 239.207 332.432L233.385 326.033C233.097 325.718 232.927 325.313 232.905 324.887C232.883 324.461 233.01 324.04 233.264 323.697C237.054 318.709 251.366 299.618 252.336 295.705C253.458 291.156 241.254 273.521 241.254 273.521C240.156 268.416 240.079 263.144 241.026 258.009C242.649 250.124 247.349 250.321 247.349 250.321Z" fill="#407BFF"/>
<path d="M232.976 325.305L230.854 327.504C230.854 327.504 234.159 332.508 238.161 333.569L239.207 332.493L232.976 325.305Z" fill="#407BFF"/>
<path opacity="0.2" d="M232.976 325.305L230.854 327.504C230.854 327.504 234.159 332.508 238.161 333.569L239.207 332.493L232.976 325.305Z" fill="black"/>
<path fill-rule="evenodd" clip-rule="evenodd" d="M360.218 123.026C358.209 123.246 356.309 124.076 355.223 125.21C353.386 127.128 353.324 130.722 355.098 132.433C355.938 133.242 356.741 133.696 359.645 135.001C361.463 135.817 362.587 136.446 363.083 136.922C363.781 137.593 363.815 137.679 363.732 138.547C363.624 139.687 363.043 140.513 362.026 140.977C360.973 141.457 357.226 141.482 356.384 141.015C355.31 140.42 355.087 140 355.011 138.429C354.973 137.632 354.856 136.875 354.752 136.745C354.647 136.615 354.208 136.508 353.776 136.508C352.581 136.508 352.115 137.109 352.022 138.769C351.958 139.909 352.013 140.184 352.467 141.028C353.063 142.135 353.875 142.822 355.238 143.376C356.063 143.711 356.602 143.765 359.096 143.764C361.667 143.763 362.116 143.715 363.07 143.334C364.644 142.706 365.881 141.64 366.487 140.388C366.939 139.456 366.988 139.174 366.911 137.967C366.845 136.926 366.71 136.416 366.344 135.83C365.491 134.466 364.65 133.938 359.887 131.776C359.003 131.374 358.269 130.874 357.784 130.342C357.107 129.601 357.039 129.432 357.039 128.508C357.039 126.682 358.288 125.733 360.881 125.59C362.13 125.52 362.545 125.575 363.323 125.913C364.552 126.447 364.893 127.041 364.893 128.649C364.893 130.04 365.259 130.651 366.093 130.651C367.152 130.651 367.613 130.034 367.808 128.353C368.154 125.368 365.93 123.302 362.088 123.038C361.419 122.992 360.578 122.987 360.218 123.026ZM403.034 123.086C397.701 123.529 394.857 124.729 393.855 126.959C393.136 128.557 393.635 131.179 394.737 131.603C395.33 131.831 396.462 131.526 396.625 131.095C396.683 130.945 396.6 130.361 396.441 129.798C395.986 128.18 396.35 127.356 397.857 126.598C399.065 125.989 400.262 125.954 400.813 126.511C401.062 126.763 401.168 127.052 401.106 127.314C401.052 127.538 400.953 128.445 400.885 129.328C400.696 131.796 400.515 132.332 399.763 132.649C399.412 132.797 398.915 132.918 398.658 132.918C398.12 132.918 397.804 133.394 397.804 134.206C397.804 134.877 398.028 135.083 399.065 135.363C400.037 135.626 400.143 135.942 399.864 137.743C399.643 139.172 398.977 140.475 398.153 141.093C397.444 141.625 396.112 141.73 395.089 141.335C394.193 140.989 393.877 140.601 393.877 139.843C393.877 138.453 393.142 138.427 391.179 139.748C389.737 140.718 389.734 140.72 389.362 140.344C388.991 139.969 388.991 139.965 389.363 137.908C390.194 133.318 390.214 133.145 389.94 132.811C389.615 132.415 388.292 132.559 387.953 133.028C387.825 133.205 387.455 134.168 387.133 135.166C386.352 137.585 385.352 139.661 384.789 140.034C384.363 140.316 384.304 140.313 383.946 139.986C383.501 139.579 383.504 139.532 384.161 135.726C384.661 132.835 384.601 132.541 383.512 132.541C382.915 132.541 382.561 132.741 382.126 133.326C381.791 133.776 381.207 135.947 380.982 137.578C380.759 139.203 380.409 139.989 379.594 140.705C378.878 141.334 378.267 141.371 377.905 140.807C377.666 140.436 377.666 140.167 377.898 138.681C378.675 133.728 378.646 134.101 378.287 133.7C378.105 133.497 377.523 133.143 376.994 132.913C375.678 132.341 373.933 132.454 372.687 133.192C370.076 134.738 368.429 138.583 369.18 141.376C369.807 143.71 372.2 144.556 374.157 143.136C375.084 142.464 375.55 142.409 376.007 142.919C376.988 144.015 378.452 144.083 379.921 143.099L380.756 142.54L381.571 143.121C382.133 143.521 382.777 143.767 383.644 143.912C384.335 144.028 384.901 144.186 384.901 144.263C384.901 144.34 384.376 144.889 383.733 145.482C380.795 148.194 379.642 150.06 379.63 152.123C379.617 154.375 381.058 155.446 383.267 154.826C385.099 154.312 386.66 151.516 387.897 146.536C388.358 144.681 388.6 144.159 389.326 143.462C389.912 142.9 391.035 142.366 391.632 142.366C391.844 142.366 392.589 142.657 393.289 143.013C393.988 143.369 395.072 143.767 395.697 143.897C399.114 144.611 402.255 142.129 403.026 138.109C403.145 137.488 403.282 136.792 403.33 136.561C403.518 135.669 404.111 135.376 405.74 135.366C408.597 135.351 409.398 134.998 409.398 133.756C409.398 132.792 409.032 132.635 406.78 132.635C404.528 132.635 404.244 132.512 404.047 131.45C403.92 130.764 404.288 126.702 404.509 126.36C404.879 125.786 405.447 125.737 409.092 125.964C413.091 126.213 413.556 126.144 413.89 125.255C414.152 124.558 413.933 123.913 413.356 123.68C412.13 123.187 406.039 122.836 403.034 123.086ZM375.535 134.966C375.637 135.157 375.683 135.476 375.639 135.675C374.586 140.398 374.32 141.14 373.579 141.425C373.01 141.643 372.282 141.389 372.01 140.876C371.575 140.054 371.944 137.916 372.748 136.601C373.273 135.742 374.541 134.619 374.985 134.619C375.186 134.619 375.434 134.775 375.535 134.966ZM385.076 147.819C384.853 149.242 384.506 150.307 383.911 151.393C383.226 152.643 382.806 152.9 382.155 152.469C381.747 152.199 381.692 152.051 381.773 151.443C381.824 151.053 382.021 150.402 382.209 149.998C382.569 149.227 384.681 146.901 385.022 146.901C385.153 146.901 385.171 147.208 385.076 147.819Z" fill="white"/>
</g>
<defs>
<clipPath id="clip0_274:4374">
<rect width="964" height="589" fill="white"/>
</clipPath>
</defs>
</svg>
